<?xml version="1.0" encoding="utf-8"?>
<!-- Generator: Adobe Illustrator 26.5.1, SVG Export Plug-In . SVG Version: 6.00 Build 0)  -->
<svg version="1.1" id="Layer_1" xmlns="http://www.w3.org/2000/svg" xmlns:xlink="http://www.w3.org/1999/xlink" x="0px" y="0px"
	 viewBox="0 0 1630.8 691.3" style="enable-background:new 0 0 1630.8 691.3;" xml:space="preserve">
<style type="text/css">
	.st0{fill:#FFFFFF;}
	.st1{fill:#A19C9A;}
	.st2{fill:#D0E1EC;}
	.st3{fill:none;}
	.st4{fill:#EE2CB1;}
	.st5{fill:#A9808B;}
	.st6{fill:#E0999E;}
	.st7{fill:#DF999E;}
	.st8{fill:#D7959B;}
</style>
<path class="st0" d="M1105.2,310.1c9.5,7,18.9,14,28.4,21c1.8,1.4,3.8,2.7,5.4,4.3c3.1,3,2,7.2-2,8.3c-1.5,0.4-3,0.4-4.9,0.7
	c-0.2,1.7-0.6,3.4-0.6,5.1c0,12-0.3,24.1,0.1,36.1c0.2,5.4-1.2,9.9-3.9,14.5c-4.4,7.2-8.4,14.7-12.7,21.9c-1.6,2.7-2.5,5.5-2.5,8.7
	c0.1,22,0,44,0.1,66c0,1.2,0.3,2.5,0.5,3.9c8.2-2.6,16.4-1.3,24.5-1.4c3.3,0,5.1,1.9,5.4,5.3c0.3,4.1,0.3,8.1,0.4,12.3
	c3,1.8,5.9,1.2,9.3,0.6c0.1-2.2,0.3-4.2,0.4-6.2c0.1-2.3-0.1-4.6,0.1-6.9c0.3-3,1.9-5,4.7-5.1c6.6-0.2,13.3-0.2,19.9,0
	c3,0.1,4.5,1.9,4.7,5.1c0.2,4.1,0.1,8.2,0.1,11.9c3.2,2.7,6.3,1.3,9.4,1.7c0.3-2,0.7-3.4,0.7-4.9c0.1-2.6,0-5.1,0.1-7.7
	c0.2-4.5,1.7-6.1,6-6.3c5.9-0.2,11.8-0.2,17.7,0c3.9,0.1,5.6,1.8,5.8,5.7c0.2,4,0.2,8.1,0.2,12c3.4,1.8,6.3,1,9.6,0.6
	c0.1-3,0.2-5.5,0.3-8c0.1-1.8,0-3.6,0.2-5.4c0.4-3,2-4.6,5-4.9c2.3-0.2,4.6-0.1,6.9-0.1c3.6,0,7.2-0.1,10.7,0
	c5.1,0.2,6.6,1.8,6.8,7.1c0.1,3.5,0,7.1,0,10.8c3.4,1.4,6.2,1.1,9.6,0.4c0.2-2.5,0.3-4.7,0.4-7c0.1-2,0-4.1,0.2-6.1
	c0.4-3.4,2-5,5.5-5.1c5.9-0.2,11.8-0.2,17.7,0c4.3,0.1,6,1.9,6.3,6.1c0.2,2.3,0,4.6,0.1,6.9c0.1,1.7,0.3,3.5,0.4,5.3
	c3.1,0.7,5.8,0.7,9,0c0.1-2.7,0.3-5.2,0.4-7.7c0.1-2,0-4.1,0.3-6.1c0.4-2.5,2.1-4.3,4.6-4.4c6.6-0.2,13.3-0.2,19.9,0
	c2.6,0.1,4.3,1.8,4.7,4.3c0.3,1.7,0.3,3.6,0.3,5.3c0.1,2.8,0.2,5.5,0.3,8.5c3.1,0.8,5.8,0.7,9,0c0.2-2,0.4-4,0.5-6
	c0.1-2.6-0.1-5.1,0.2-7.7c0.2-2.5,2-4.5,4.5-4.5c6.9-0.2,13.8-0.2,20.7,0.1c2.2,0.1,3.7,1.7,4.1,4c0.3,1.8,0.3,3.6,0.3,5.3
	c0.1,2.8,0.1,5.5,0.2,8.3c3.1,1.5,5.8,1.1,8.7,0.7c1.9-3.1,0.9-6.5,1-9.7c0.2-7.8,1.1-8.9,8.9-8.8c6.6,0.1,13.3-0.9,19.9,1
	c1.5-2.7,0.8-5.5,0.8-8.3c0.1-26.1,0-52.2,0-78.3c0-2-0.1-4.1,0.2-6.1c0.4-2.9,2.6-5,5-4.9c2.4,0.1,4.5,2.2,4.7,5.2
	c0.2,3.6,0.1,7.2,0.2,10.7c0.1,3.5-0.4,7.1,0.5,11c2.9,0,5.6,0,8.3,0c1.8-1.9,1.1-4.3,1.2-6.5c0.1-17.1,0-34.3,0.1-51.4
	c0-2.3,0.1-4.6,0.5-6.9c0.4-2.2,2.2-3.6,4.3-3.8c2.3-0.1,4.5,1.4,4.9,3.9c0.3,1.5,0.3,3,0.3,4.6c0,3.1,0,6.1,0,9
	c2,0.9,2.7-0.2,3.3-1.4c3.7-7.9,7.4-15.7,11-23.7c0.8-1.8,1.2-3.9,1.3-5.9c0.2-3.3,0-6.7,0.1-10c0-1.3,0.1-2.6,0.4-3.8
	c0.5-1.9,2.8-3.4,4.7-3.4c2,0.1,4,1.6,4.4,3.6c0.3,1.7,0.4,3.6,0.4,5.3c0.1,13.7-1,9,5,22c2.2,4.9,4.5,9.8,6.8,14.6
	c0.5,1.1,1.2,2,1.7,2.8c2,0,2-1.2,2.1-2.2c0.1-2.6,0-5.1,0.1-7.7c0.1-1.5,0.1-3.1,0.5-4.6c0.5-2.1,2.4-3.4,4.5-3.4
	c2,0,4.1,1.5,4.5,3.5c0.3,2,0.3,4.1,0.3,6.1c0,16.9,0,33.8,0,50.7c0,2.5,0,5.1,0,7.6c3.3,1.8,6.3,0.7,9.6,1c0.3-2,0.6-3.4,0.6-4.8
	c0.1-4.1,0-8.2,0-12.3c0-1.3,0-2.6,0-3.8c0.3-4.2,2.1-6.5,5.1-6.3c2.7,0.1,4.4,2.3,4.6,6c0.1,1.8,0,3.6,0,5.4c0,25.8,0,51.7,0,77.5
	c0,2.8,0,5.6,0,8.8c8.2-2,16.1-1.1,23.9-1.1c3.9,0,5.6,1.8,5.9,5.6c0.3,4,0.3,8.1,0.4,12.5c1.8,0.3,3.2,0.6,4.7,0.7
	c1.3,0.1,2.5-0.2,3.9-0.3c1.9-3.1,0.9-6.5,1-9.7c0.2-7.8,1.2-8.8,8.9-8.9c4.9-0.1,9.7-0.1,14.6,0.1c4.3,0.2,5.9,1.8,6.1,6.2
	c0.2,3.8,0,7.6,0,11.3c3.4,2,6.3,1.5,9.6,0.8c0.2-1.8,0.4-3.5,0.5-5.3c0.1-2.6-0.1-5.1,0.1-7.7c0.2-3.1,1.7-5.1,4.6-5.2
	c6.9-0.2,13.8-0.1,20.7,0.1c1.1,0,2.1,1.2,3.7,2.3c0.5,41.3,0.5,82.2,0.6,123.1c0,5.1,0,10.2-0.5,16.2c-2.3,2.9-4.9,3.2-7.4,3.7
	c-9.9,2.1-19.9,3.8-29.7,6.4c-13.7,3.6-27.1,8.2-40.1,15.2c-2.9,1.5-5.2,3-8.1,4.5c-8.3,4.6-15.7,9.6-21.9,16.1
	c-3.1,3.2-6.5,4.3-10.9,4.2c-16.1-0.1-32.1,0.1-48.7,0.1c-11.7-0.1-22.8-0.2-33.9-0.2c-2.8,0-5.6,0-8.3-2c-1.7-1.8-3.1-3.3-4.7-4.6
	c-8.7-7.4-17.8-14.2-29-18.7c-8.1-4.2-15.9-8-24.9-10.4c-28.3-9.9-57-13.8-86.2-14.8c-21.8-0.8-43.4,0.9-64.9,4.5
	c-13.3,2.3-26.5,5.1-39.8,10c-4.7,1.8-8.9,3.4-13.6,5.2c-4.5,1.8-8.5,3.3-12.3,5.2c-6.5,3.3-13,6.6-19,11.5
	c-0.9,0.6-1.5,1.1-2.5,1.8c-3.6,2.8-6.9,5.3-9.8,8.2c-2.9,2.9-6,4.4-10.2,4.2c-6.6-0.3-13.3-0.1-20-0.1c-12,0.1-24.1,0.2-36.8,0.1
	c-22.1-0.1-43.4-0.1-64.8-0.1c-3.3,0-6.7,0.4-9.5-2.8c-0.2-3.9-0.3-7.2-0.4-10.5c-0.1-5.3-0.3-10.6-0.3-16.5c0.1-3.3,0-6,0.1-9.4
	c0-3.2-0.1-5.8,0-9.1c0-3.3-0.1-6,0-9.4c0.1-7.1,0.1-13.5,0.1-20c-2.1-2-4.1-3.9-6.2-5.7c-12.4-10.6-26.7-18-41.7-24
	c-27.1-10.9-55.4-16.4-84.3-18.3c-25.3-1.7-50.6-1.2-75.7,2.8c-9.6,1.5-19.2,2.8-29,6c-3.5,0.9-6.4,1.8-9.9,2.8
	c-25.5,7.3-48.7,17.9-68,36.2c0,3,0,5.7,0,8.5c0,19.6,0,39.2,0,58.9c0,3,0.3,6.1-1.9,9.2c-3.4,0.6-6.1,1.2-8.9,1.2
	c-21.7,0.1-43.5,0-65.2,0.1c-2.8,0-5.6,0.2-9.1,0.1c-6.3,0-12,0-18.3,0c-9.8-0.1-19-0.2-28.1-0.1c-2.8,0-5.6-0.2-8.3-2.1
	c-12.9-13.1-28.2-21.7-44.6-28.5c-31.8-13.2-65.2-18.5-99.3-19.8c-22-0.8-43.9,0.8-65.6,4.5c-8.5,1.4-17.1,2.7-25.9,5.8
	c-5,1.4-9.4,2.9-14.3,4.4c-12.6,3.8-24,8.9-34.8,15.3c-8.8,5.2-17.4,10.8-24.6,19c-2.8,2-5.5,1.4-8,1.5c-9.9,0.1-19.9,0.2-30.5,0.2
	c-12-0.1-23.2-0.1-34.5-0.1c-6.6,0-13.3-0.1-19.9,0c-2.7,0-4.9-0.8-6.8-2.8c-1.9-2-4.1-3.9-6.2-5.7c-17.5-14.4-37.6-23.4-59.6-29.9
	c-2.7-0.8-5-1.3-7.8-2.1c-4.7-1.3-8.8-2.5-13-3.3c-5.7-1.1-11.5-1.8-17.2-2.7c-3.8-1.4-5.5-4-5.4-8.2c0.2-8.2,0-16.3,0-24.5
	c0-34,0-67.9,0-101.9c0-1.8,0-3.6,0.1-5.4c0.1-2.8,1.4-4.8,4.7-5.9c4.9-0.1,9.2,0,13.6,0.1c1.8,0,3.6-0.1,5.4,0.1
	c4.2,0.3,5.8,2,6,6.4c0.1,2,0,4.1,0,6.1c0,1.8,0,3.5,0,5.5c3.1,1.3,5.8,0.9,9,0.6c0.3-1.7,0.6-3.4,0.7-5.1c0.2-2.8,0-5.6,0.2-8.4
	c0.3-2.9,2.1-4.8,5-4.9c6.4-0.2,12.8-0.2,19.2,0c3.3,0.1,5,2,5.4,5.3c0.2,1.5,0.1,3.1,0.1,4.6c0,2.5,0,5.1,0,7.7
	c3.2,1.8,6.1,1.2,9.5,0.7c0.1-3,0.2-5.8,0.3-8.6c0.1-1.8,0-3.6,0.3-5.4c0.4-2.4,2.2-4.3,4.7-4.4c7.9-0.2,15.8-0.9,24.2,0.8
	c0.2-1.6,0.7-3.2,0.7-4.9c0-15.6,0-31.2,0-46.8c0-12.3,0-24.6,0.1-36.8c0-1.8,0.1-3.6,0.5-5.3c0.4-2.1,2.4-3.5,4.4-3.6
	c1.9,0,4.2,1.5,4.5,3.5c0.3,1.7,0.3,3.6,0.4,5.3c0.1,5.8,0.1,11.7,0.1,17.8c3.3,1.1,6.2,0.9,9.7,0.2c0.2-2.4,0.4-4.6,0.4-6.8
	c0-16.9,0-33.8,0-50.7c0-2.3,0-4.6,0.3-6.9c0.3-2.6,2.3-4.1,4.8-4.1c2.3,0.1,4.3,1.8,4.5,4.3c0.2,2,0.1,4.1,0.2,6.1
	c0.1,2.5,0.2,4.9,0.3,7.1c1.8,0.7,2.4-0.1,2.8-1c3.7-7.9,7.4-15.7,10.9-23.7c0.9-2,1.3-4.4,1.4-6.6c0.2-3.3,0-6.7,0.1-10
	c0.1-1.5,0.2-3.2,1-4.4c0.7-1.1,2.3-2.1,3.6-2.4c1.9-0.5,3.5,0.7,4.4,2.4c0.5,0.9,0.7,1.9,0.9,2.9c0.2,1,0.2,2.1,0.1,3.1
	c-1.1,8.8,1.5,16.6,5.6,24.2c2.2,4,3.9,8.3,5.9,12.5c0.6,1.3,1.5,2.5,2.8,4.6c0.7-1.6,1.3-2.4,1.3-3.2c0.1-3.1,0-6.1,0.1-9.2
	c0-1.3,0.1-2.6,0.6-3.8c0.7-1.8,2.1-2.8,4.1-2.9c2.1-0.1,4.2,1.4,4.5,3.3c0.3,2,0.4,4.1,0.4,6.1c0,17.1,0,34.3,0,51.4
	c0,2.5-0.4,5.1,0.9,7.8c2.8,0,5.5,0,8.7,0c0.3-1.3,0.7-2.8,0.8-4.2c0.1-5.1,0-10.2,0.1-15.4c0-1.5,0.1-3.1,0.6-4.5
	c0.6-1.8,2.1-2.9,4.1-2.9c2-0.1,4.2,1.3,4.5,3.4c0.4,2.5,0.5,5.1,0.5,7.6c0,25.8,0,51.7,0,77.5c0,2.7-0.4,5.6,0.7,8.1
	c6.6-0.1,13-0.1,19.3-0.1c1,0,2,0,3.1,0c4.7,0.3,6.5,1.9,6.8,6.5c0.2,3.8,0.1,7.6,0.2,11.8c1.8,0.2,3.3,0.5,4.7,0.6
	c1.3,0,2.5-0.2,4.2-0.3c0.2-1.8,0.6-3.5,0.7-5.2c0.1-2.8-0.1-5.6,0.2-8.4c0.3-2.9,2.1-4.8,5-4.9c6.4-0.2,12.8-0.2,19.2,0
	c3.3,0.1,4.9,1.9,5.3,5.4c0.2,1.5,0.1,3.1,0.1,4.6c0,2,0.1,4.1,0.1,6.1c0,0.5,0.2,1,0.4,1.8c2.7,1.5,5.6,1,8.9,0.3
	c0.1-2.5,0.3-4.7,0.3-7c0.1-2-0.1-4.1,0.1-6.1c0.3-3,1.9-5,4.8-5c6.6-0.2,13.3-0.2,19.9,0c2.7,0.1,4.2,1.7,4.6,4.4
	c0.3,1.8,0.2,3.6,0.3,5.4c0,2.5,0,5.1,0,7.5c3.2,2.2,6.1,1.5,9.1,1c1.6-2.8,0.7-5.6,0.9-8.4c0.1-1.8,0-3.6,0.2-5.4
	c0.3-2.6,1.9-4.4,4.4-4.5c6.6-0.2,13.3-0.2,19.9-0.1c2.9,0.1,4.6,2,4.8,5c0.2,2.8,0.1,5.6,0.1,8.4c0,1.5,0.2,3,0.4,4.6
	c3.3,1,6.2,1.1,9.4,0c0.2-1.5,0.4-3,0.4-4.5c0.1-2.6-0.1-5.1,0.1-7.7c0.2-4,1.8-5.5,5.6-5.9c0.3,0,0.5,0,0.8,0
	c5.6,0,11.3-0.1,16.9,0c4.3,0.1,6,1.9,6.2,6.1c0.2,3.8,0,7.6,0,11.5c3.2,1.8,6.1,1.2,9.5,0.7c0.2-2.6,0.3-4.8,0.4-7
	c0.1-2,0-4.1,0.2-6.1c0.4-3.4,2.1-5.1,5.5-5.2c6.1-0.2,12.3-0.2,18.4,0c3.8,0.1,5.5,2,5.7,5.9c0.2,4,0.2,8.1,0.2,12.3
	c3.2,0.9,5.9,0.8,9,0.2c0.2-1.6,0.5-3,0.5-4.5c0.1-2.6-0.1-5.1,0.1-7.7c0.3-4.3,2-6.1,6.2-6.2c5.9-0.2,11.8-0.2,17.7,0
	c3.8,0.1,5.5,1.9,5.9,5.7c0.2,1.8,0.1,3.6,0.1,5.4c0.1,2.3,0.2,4.5,0.3,7c2.9,1.2,5.6,0.8,8.8,0.4c0.2-1.5,0.6-2.9,0.7-4.4
	c0.1-2,0-4.1,0.1-6.1c0.2-6.6,1.5-7.9,8.2-8c4.9-0.1,9.7,0,14.6,0c2.1,0,4.1,0.3,5.9,3.1c0.5,5.5-0.1,9.8,1,14.1
	c1.2-4.7,0.9-9.5,0.6-14.2c0.1-15.1,0.2-30.2,0.2-45.3c0-8.4-0.1-16.9,0-25.3c0.1-3.5-0.8-6.5-2.6-9.4c-4.5-7.5-8.6-15.2-13.1-22.6
	c-2.5-4.1-3.7-8.2-3.6-13c0.2-11.5,0.1-23,0.1-34.6c0-2.3-0.2-4.5-0.3-7c-2.2-0.5-4.3-0.7-6.1-1.4c-2.8-1.1-3.7-4.6-1.9-7.1
	c0.8-1,1.7-1.9,2.7-2.6c11.1-8.2,22.3-16.4,33.6-24.7c1-5.9,1-79.8-0.1-86.6c-2.4-0.3-4.9-0.4-7.3-0.9c-2.6-0.4-4-2-4.3-4.7
	c-0.1-1-0.1-2-0.1-3.1c0-9.7,0-19.5,0-29.2c0-1,0-2.1,0.1-3.1c0.4-2.9,2.1-4.5,5.1-4.8c1.8-0.2,3.6-0.1,5.4-0.1c3.3,0,6.6,0,10.2,0
	c0.9-2.1,1.8-3.9,2.5-5.7c14.3-39.4,28.6-78.9,42.9-118.3c1.2-3.2,1.7-6.4,1.7-9.7c-0.1-11.3-0.1-22.5,0-33.8c0-2,0.2-4.1,0.7-6
	c0.5-1.8,2-2.9,4-3.1c2-0.2,4.2,1.1,4.7,3.2c0.5,2,0.6,4,0.7,6c0.1,11.3,0.1,22.5,0,33.8c0,3.4,0.5,6.5,1.7,9.7
	c14.4,39.6,28.8,79.3,43.2,119c0.5,1.4,1.2,2.8,1.8,4.2c2.8,1.3,5.6,0.5,8.4,0.7c2.6,0.1,5.1-0.1,7.7,0.2c2.9,0.3,4.6,2.1,5,4.9
	c0.1,1,0.1,2,0.1,3.1c0,9.7,0,19.5,0,29.2c0,1,0,2.1-0.1,3.1c-0.4,2.6-1.8,4.1-4.4,4.6c-1.2,0.2-2.5,0.2-3.8,0.3
	c-1,0.1-2,0.2-3.4,0.4c-0.3,1.5-0.7,2.9-0.7,4.3c0,26.4,0,52.7,0,79.1c0,1,0.2,2,0.3,3c10.6,7.8,21.1,15.5,31.6,23.2
	c1.6,1.2,3.4,2.4,4.7,3.9c2.3,2.5,1.4,6.4-1.8,7.6c-1.6,0.6-3.5,0.7-5.6,1.1c-0.2,1.7-0.6,3.4-0.6,5.1c-0.1,12.3-0.1,24.6,0,36.9
	c0.1,4.5-0.8,8.5-3.2,12.3c-4.8,7.8-9.2,15.9-13.8,23.9c-1.3,2.3-2.1,4.5-2.1,7.2c0.1,21.8,0,43.5,0.1,65.3c0,1,0.2,2,0.3,2.6
	c0.5,0.5,0.7,0.7,0.9,0.8c0.2,0.1,0.5,0.2,0.7,0.2c101.9,0.1,203.7,0.1,305.6,0.2c2,0,4.1,0,6.6,0c0.3-2,0.8-3.7,0.8-5.3
	c0-20.7,0-41.5,0.1-62.2c0-3.5-0.9-6.4-2.7-9.4c-4.8-8.2-9.3-16.5-14.2-24.6c-1.9-3.2-2.7-6.5-2.7-10.2c0.1-11.5,0.1-23,0.1-34.6
	c0-2.5,0-5.1,0-8c-2.2-0.5-4.2-0.6-6-1.3c-3.3-1.2-4.3-4.9-2-7.5c0.8-1,1.8-1.8,2.8-2.5c11.1-8.2,22.2-16.3,34-25
	c0-6.6,0-13.7,0-20.8c0-7.4,0-14.8,0-22.3c0-7.2,0-14.3,0-21.5c0-7.1,0.1-14.2-0.1-21.5c-2.5-0.2-4.3-0.3-6.1-0.5
	c-5.1-0.6-6.2-1.7-6.4-6.7c-0.1-3.1,0-6.1,0-9.2c0-7.4-0.1-14.8,0-22.3c0.1-5.4,1.5-6.8,6.9-7c4.6-0.1,9.2,0,13.9,0
	c0.8-1.8,1.4-3.1,1.9-4.5c14.4-39.7,28.8-79.3,43.2-119c1.3-3.7,2-7.3,1.9-11.2c-0.1-10.5-0.1-21-0.3-32.2c0-2.2,0-3.7,0.3-5.2
	c0.5-2.7,2.1-4.4,4.3-4.5c2.6-0.2,4.3,1.1,5.1,3.6c0.1,0.5,0.3,1,0.6,2c0.1,8.7,0.3,16.9-0.3,25c-0.8,11.7,1.8,22.6,5.8,33.6
	c13.1,35.2,25.7,70.6,38.5,105.8c0.8,2.1,1.7,4.2,2.7,6.7c3.7,0,7.3,0,10.8,0c1.8,0,3.6,0,5.4,0.2c2.6,0.4,4.1,2,4.6,4.5
	c0.3,1.7,0.3,3.6,0.3,5.3c0,8.4,0,16.9,0,25.3c0,1.5,0,3.1-0.1,4.6c-0.4,3.1-1.8,4.5-4.8,5c-1.3,0.2-2.5,0.2-3.8,0.3
	c-1,0.1-2,0.3-3.3,0.6c-1.4,4.3-0.5,8.6-0.7,12.9c-0.2,4.1,0,8.2-0.1,13.4c0.1,4.3,0.3,7.5,0.4,10.7c-0.2,4.8-0.4,9.7-0.5,14.5
	c-0.1,6.4,0,12.8,0.1,20.5c0.1,4,0.3,6.7,0.4,9.4c-0.1,1.1-0.2,2.2-0.2,4.2C1103.8,309.5,1104.5,309.8,1105.2,310.1 M147.4,532.3
	c0.4-0.7,0.8-1.5,2.3-2.6c8.5-5.2,14.2-4.8,21.3,1.7c0.6,0.5,1.2,1,2,2.2c0.4,0.3,0.9,0.5,1.2,2.1c1.3,4.2,1.7,8.5,1.6,12.9
	c-0.1,4.3-0.1,8.7,0,13.1c0,1.5,0.4,2.9,0.6,4.6c2.1,0.2,3.9,0.3,5.6,0.5c3.3,0.5,4.7,1.7,4.9,4.9c0.4,6.4,0.7,12.8,0.7,19.1
	c0,13-0.4,26.1-0.5,39.1c0,1.7,0.6,3.4,0.9,5.1c4.2,0.9,7.9,0.9,11.6,0c0.3-1.1,0.7-1.8,0.7-2.5c0-63,0.1-125.9,0-188.9
	c0-1-0.4-2-0.7-3.4c-2-0.3-4-0.6-5.9-0.7c-2.8-0.1-5.6,0-8.4-0.2c-3.2-0.2-4.5-1.7-4.8-4.9c-0.2-1.8-0.1-3.6-0.1-5.4
	c0-10.2,0-20.5,0-30.7c0-2.5-0.1-5.1-0.2-7.5c-1-0.4-1.7-0.9-2.4-0.9c-4.7-0.2-7.4-2.7-9.1-6.9c-2-5-4.4-9.8-6.7-14.6
	c-0.6-1.2-0.6-3-3-3.2c-2.9,6.1-6.1,12.3-8.8,18.6c-1.5,3.4-3.5,5.5-7.2,6c-1.2,0.2-2.3,0.5-3.9,0.9c0,2.9,0,5.4,0,7.9
	c0,10.2,0,20.5,0,30.7c0,1.8,0.1,3.6-0.1,5.4c-0.3,3-1.8,4.5-5,4.7c-3.1,0.2-6.1,0-9.2,0.2c-1.7,0.1-3.4,0.6-5.5,1
	c-0.1,3.4-0.2,6.4-0.2,9.5c0,52.7,0,105.4,0,158.2c0,7.4,0,14.8,0,22.3c0,1.5,0.3,2.9,0.5,4.6c4.1,0.6,7.8,1.1,12-0.6
	c0.1-2.6,0.1-5.1,0.2-7.6c0-16.1,0-32.2,0-48.4c0-2-0.1-4.1,0.2-6.1c0.6-3.8,2.1-5.2,6-5.7c1.7-0.2,3.4-0.4,5.3-0.6
	c1-10.9-0.7-21.4,2.6-31.9C146.2,533.7,146.4,533.3,147.4,532.3 M1484.7,533.7c0.5,0.2,0.9,0.5,1.1,2c0.5,5.1,1,10.1,1.4,15.2
	c0.4,5-0.7,10.1,0.8,15.3c2.1,0.2,3.8,0.3,5.6,0.5c3.3,0.5,4.5,1.7,4.8,4.9c0.2,2,0.1,4.1,0.1,6.1c0,16.9,0,33.8,0,50.6
	c0,2.2-0.7,4.6,1.3,6.8c3.8,0.2,7.8,1.4,12.1-1.4c0-2.9,0-6,0-9c0-58.1,0-116.1,0-174.2c0-2,0.1-4.1-0.1-6.1
	c-0.1-1.4-0.6-2.9-0.9-4.2c-3.6-1.4-7-0.7-10.3-0.8c-8-0.2-8.8-0.8-8.8-8.8c-0.1-11.8,0-23.5,0-35.3c0-1.7-0.4-3.4-0.6-4.8
	c-0.9-0.4-1.4-0.7-1.9-0.7c-4.8,0.2-7.4-2.6-9.2-6.7c-2-4.7-4.3-9.3-6.5-13.9c-0.6-1.3-1.5-2.5-2.6-4.4c-1.3,2-2.4,3.4-3.1,4.9
	c-2,4.1-4.1,8.3-5.7,12.6c-1.8,4.8-4.8,7.7-10.1,7.9c-0.4,0-0.7,0.6-1.7,1.3c0,2.1,0,4.6,0,7.2c0,10.2,0,20.5,0,30.7
	c0,1.8,0,3.6-0.2,5.4c-0.5,3-2.1,4.6-5.1,4.7c-3.3,0.2-6.7,0-10,0.2c-1.4,0.1-2.9,0.6-4.7,1c0,3.1,0,5.9,0,8.7
	c0,58.8,0,117.7,0,176.5c0,1.8-0.1,3.6,0.1,5.4c0.1,1.4,0.7,2.8,1,4.2c3.9,0.2,7.4,0.9,11.3-0.6c0.1-2.6,0.3-5.1,0.3-7.6
	c0-16.4,0-32.7,0-49.1c0-2-0.1-4.1,0.2-6.1c0.3-2.8,2.1-4.6,5-5c2-0.3,4-0.4,6.1-0.6c1.3-4,0.6-7.8,0.7-11.6
	c0.2-6.4-0.6-12.8,1.3-19c0.2-0.5-0.6-1.3-0.6-2.3c0.3-0.4,0.7-0.7,2.3-1.4c0.6-0.4,1.3-0.7,1.9-1.3c5.3-5.3,13.8-6.2,20-1.7
	c0.8,0.6,1.8,0.8,2.9,2.1C1483.5,531.6,1484,532.2,1484.7,533.7 M1610.8,511.4c0,3.6,0,7.2-0.1,10.7c-0.2,3.6-1.7,5.6-4.9,5.7
	c-6.4,0.3-12.8,0.3-19.2,0c-3.2-0.1-4.9-2.3-5.2-5.6c-0.1-1.5,0-3.1-0.1-4.6c-0.1-2.5-0.2-5-0.3-7.5c-3.5-1.1-6.4-1.3-9.7,0.2
	c-0.1,2.3-0.3,4.6-0.4,6.8c-0.1,2,0,4.1-0.2,6.1c-0.3,2.8-1.7,4.5-4.3,4.6c-6.6,0.2-13.3,0.2-19.9,0c-2.8-0.1-4.6-2.2-4.9-5.1
	c-0.3-2.5-0.1-5.1-0.2-7.7c-0.1-1.7-0.4-3.4-0.6-5.2c-3.1-0.9-5.8-1.1-8.7,0.5c-0.1,3.6-0.1,7.2-0.4,10.7c-0.4,4.7-1.7,6-6.5,6.9
	c-1,0.2-2,0.4-3.3,0.6c-0.2,2.1-0.4,4.1-0.4,6.1c0,20.7,0,41.5,0,62.2c0,1.3,0,2.6,0.1,3.8c0.2,3.1,1,3.5,5.6,2.9
	c0.1-1.9,0.4-3.9,0.4-5.9c0-9.5,0-18.9,0-28.4c0-2-0.1-4.1,0.2-6.1c1.1-9.7,8.8-17.3,17.9-18.3c11.6-1.2,19.8,5.5,22.3,13.6
	c0.8,2.6,1.1,5.5,1.1,8.3c0.1,10.2,0,20.5,0.1,30.7c0,2,0.4,3.9,0.5,5.9c3.1,1.1,5.7,1.6,8.6-0.5c0-2.5,0-5,0-7.5
	c0-8.7,0-17.4,0-26.1c0-2-0.1-4.1,0.2-6.1c1-8.5,6.9-15.7,14.9-17.7c8.9-2.2,17.3,0.5,22.5,7.7c0.9,1.2,1.6,2.6,2.4,5.2
	c0.5,3,1.3,6,1.3,9c0.2,9.4,0.1,18.9,0.1,28.3c0,2,0.1,4,0.2,6c0.9-1.9,1.1-3.8,1.1-5.7c-0.1-13-0.2-26-0.1-40.4
	c-0.1-15.3-0.2-30.5-0.4-46.6c-0.8-0.1-1.6-0.2-3.4-0.4c-0.6,0-1.3,0.1-2.9-0.3C1612.8,508.4,1611.4,508.3,1610.8,511.4 M10.1,563.3
	c0,12.4,0,24.9,0,37.3c0,0.5,0.4,0.9,0.6,1.4c0.2-0.4,0.6-0.9,0.6-1.3c0-12.9-0.1-25.9,0-39.9c0.9-2.1,1.5-4.4,2.8-6.3
	c4.7-7.3,13.8-10.9,22.1-9c8.2,1.9,14.2,8.4,15.6,17c0.5,3.3,0.8,6.6,0.8,9.9c0.1,9,0,17.9,0.1,26.9c0,1.7,0.5,3.4,0.8,4.9
	c3,0.6,5.5,1.2,8.1-1.2c0.1-2.2,0.2-4.7,0.2-7.2c0-10,0-20,0-29.9c0-3.3,0.3-6.6,1.9-9.7c4.1-7.7,13-12.2,22-10.8
	c8.4,1.3,15.3,8.1,16.7,16.8c0.5,3.3,0.8,6.6,0.9,9.9c0.1,8.2,0,16.4,0,24.6c0,1.8,0,3.6,0.1,5.4c0.1,1.4,0.8,2.4,2.3,2.6
	c1.7,0.2,3.3-0.7,3.5-2.2c0.2-1.5,0.3-3.1,0.3-4.6c0-21.2,0-42.5,0-63.7c0-1.7-0.4-3.5-0.5-5.1c-1.1-0.3-1.8-0.5-2.5-0.7
	c-6.3-1.1-7.1-2-7.2-8.5c0-2,0-4.1,0-6.1c-0.1-1.2-0.3-2.5-0.5-3.7c-2.9-1.6-5.5-1.4-8.6-0.5c-0.2,1.9-0.5,3.6-0.5,5.4
	c-0.1,2.3,0.1,4.6-0.1,6.9c-0.5,4.6-2.3,6.3-7,6.4c-5.4,0.1-10.8,0.1-16.1,0c-4.2-0.1-6.2-1.8-6.7-5.9c-0.3-2.5-0.1-5.1-0.2-7.7
	c-0.1-1.7-0.4-3.4-0.6-5.3c-3.1-0.7-5.8-1-8.9,0.5c-0.1,2.5-0.2,5-0.2,7.6c0,1.8,0.1,3.6-0.1,5.4c-0.4,3.2-2.3,5.2-5.5,5.3
	c-6.4,0.2-12.8,0.1-19.2-0.1c-2.7-0.1-4.2-1.7-4.4-4.5c-0.2-3.3,0-6.7-0.2-10c-0.1-1.4-0.7-2.8-1-4.2c-3.2-0.8-5.9-1-9,0.7
	c-0.1,2.4-0.3,4.9-0.3,7.4c0,10.8-0.1,21.5,0,32.3C10,553.7,10.2,557.8,10.1,563.3 M1102.4,601.2c-0.1-56.3-0.1-112.6-0.2-168.9
	c0-0.4-0.4-0.9-0.9-1.8c-0.9-0.1-2.2-0.4-3.4-0.4c-3.3-0.1-6.7,0-10,0c-32.2,0-64.5,0-96.7,0c-2.7,0-5.6-0.7-8.3,1.1
	c-0.1,2.1-0.3,4.1-0.3,6.1c0,65.3,0,130.5,0,195.8c0,0.8-0.1,1.5,0,2.3c0.2,1.5,0.5,2.9,0.7,4.1c0.9,0.3,1.4,0.6,1.9,0.6
	c36.6,0.1,73.2,0.1,109.8,0.1c1.8,0,3.6-0.1,5.4-0.2c0.2,0,0.5-0.1,0.7-0.2c0.2-0.1,0.4-0.3,0.6-0.5c0.2-0.4,0.6-0.9,0.6-1.3
	C1102.2,626.3,1102.3,614.5,1102.4,601.2 M647.8,570.5c0-25.1,0.1-50.1,0.1-75.2c0-20.2,0-40.4,0-60.6c0-0.5,0-1-0.1-1.5
	c0-0.3-0.1-0.5-0.1-0.8c-0.1-0.2-0.1-0.5-0.3-0.7c-0.1-0.2-0.3-0.4-0.7-1c-0.9-0.1-2.1-0.5-3.3-0.5c-20.8-0.8-108-0.3-114.4,0.7
	c-1.6,2.5-1,5.3-1,8.1c0,64.2,0,128.4,0,192.6c0,1.8,0,3.6,0.1,5.4c0.1,1,0.6,1.9,0.8,2.7c6.4,0.9,94.4,1.4,114.5,0.7
	c1.2,0,2.4-0.4,3.4-0.5c0.4-0.9,0.8-1.3,0.8-1.8C647.8,616,647.8,594,647.8,570.5 M353.4,551.2c4.1,4,5.7,8.9,5.7,14.6
	c-0.1,10.2,0,20.5,0,30.7c0,2.5-0.7,5.1,1.1,7.4c3.6,0.9,3.6,0.9,7.6-0.2c0.1-1.8,0.4-3.8,0.4-5.8c0-8.7-0.1-17.4,0.1-26.1
	c0.1-3.6,0.4-7.2,1-10.7c1.9-10.1,11.4-16.7,22.1-15.9c9,0.7,18.4,9.1,18.2,18.6c0,2.3,0.1,4.6,0.1,6.9c0,9.2,0,18.4,0,27.6
	c0,2-0.4,4.1,1.4,5.9c2.4,0.9,4.8,1,7.2-0.2c1.8-2.3,1.2-5,1.2-7.5c0.1-10.7,0.3-21.5,0-32.2c-0.3-12.5,15.1-24.4,29.7-17
	c6.9,3.5,11,9,11.1,17.1c0.1,9.5,0.1,18.9,0.1,28.4c0,3.8,0.2,7.6,1.4,11.3c2.7,1,5.1,1.2,7.3-0.1c1.7-2.5,1.1-5.2,1.1-7.7
	c0.1-10,0-20,0-29.9c0-3.9,0.3-7.6,2.4-11.1c4.4-7.3,13.1-11.3,21.7-9.9c8.4,1.4,15.1,8.2,16.5,17c0.5,3.3,0.8,6.6,0.8,9.9
	c0.1,9,0,17.9,0.1,26.9c0,1.7,0.4,3.4,0.7,5.5c1.6-0.2,3,0,3.9-0.6c0.7-0.4,1.1-1.6,1.4-2.5c0.2-1,0.1-2,0.1-3.1
	c0-21.8,0-43.5,0-65.3c0-1.5-0.4-2.9-0.7-4.5c-1.6-0.2-2.8-0.3-4-0.5c-3.9-0.9-5.2-2.4-5.5-6.3c-0.1-1.8,0-3.6-0.1-5.4
	c-0.1-2.2-0.3-4.5-0.4-6.5c-4.6-1.4-4.6-1.4-8.9-0.1c-0.1,2.1-0.2,4.3-0.3,6.6c-0.2,2.3-0.2,4.6-0.7,6.9c-0.6,3.2-2,4.6-5.1,4.7
	c-6.1,0.2-12.3,0.2-18.4,0c-3.6-0.1-5.5-2.2-5.8-5.9c-0.2-2.8,0-5.6-0.1-8.4c-0.1-1.5-0.4-2.9-0.6-4.4c-3.2-0.6-5.9-1.1-8.8,0.6
	c-0.1,2.2-0.2,4.5-0.2,6.8c-0.1,1.8,0.1,3.6-0.1,5.4c-0.5,4-2.5,5.9-6.5,6.1c-5.4,0.2-10.8,0.2-16.1,0c-5-0.1-6.4-1.5-6.6-6.4
	c-0.2-4.1,0-8.2-1.5-12.2c-2.7-1.2-5.4-1-8.4-0.2c-0.2,1.4-0.5,2.6-0.5,3.8c-0.1,2.3,0,4.6,0,6.9c-0.2,6.4-1.7,7.9-8.4,8.1
	c-3.8,0.1-7.7,0-11.5,0c-8.9-0.1-9.3-0.6-9.5-9.7c-0.1-3,0.7-6.1-1.1-9c-3.1-0.9-6-1.3-9.1,1c-0.1,3.9,0,8-0.3,12
	c-0.2,3.3-2,5.4-5.2,5.5c-6.1,0.2-12.3,0.3-18.4,0c-3.9-0.2-5.4-2-5.6-5.9c-0.1-2.8,0-5.6-0.1-8.4c-0.1-1.4-0.6-2.9-0.9-4.3
	c-3.4-0.7-6.3-1.5-9.5,1.3c0,3.7,0.1,7.8,0,11.9c-0.1,3.2-1.6,5.1-4.5,5.3c-6.6,0.3-13.3,0.3-19.9,0.1c-2.7-0.1-4.4-2.3-4.7-5.2
	c-0.2-2-0.1-4.1-0.1-6.1c-0.1-2.2-0.3-4.5-0.4-6.8c-3.3-1.4-6.2-1.5-9.4,0c-0.2,1.3-0.5,2.5-0.5,3.8c-0.1,3.1,0.1,6.1-0.1,9.2
	c-0.2,3.6-1.7,5-5.3,5.3c-2.3,0.2-4.6,0.1-6.9,0.1c-3.8,0-7.7,0.1-11.5-0.1c-3.2-0.2-5.2-2.2-5.5-5.4c-0.2-2.5,0-5.1-0.2-7.7
	c-0.1-2,0.6-4.1-1.5-6c-2.5-0.2-5.2-1.1-8.2,1.3c0,2.3,0,4.8,0,7.4c0,1.8,0,3.6-0.3,5.3c-0.6,3.3-2.4,5-5.8,5.1
	c-5.9,0.2-11.8,0.2-17.7,0c-3.4-0.1-5.3-1.7-5.9-5c-0.4-2-0.2-4.1-0.4-6.1c-0.2-2.5,0.6-5.1-1.1-7.9c-2.5-0.4-5.1-1-8.1,1
	c-0.2,1.3-0.5,2.8-0.5,4.3c-0.1,2.3,0.1,4.6-0.1,6.9c-0.2,4.5-1.4,5.9-5.7,6.9c-1.4,0.3-3.1-0.2-4.4,1.9c0,0.8-0.2,2-0.2,3.3
	c0,21.5,0,43,0,64.5c0,1-0.2,2.1,0.1,3.1c0.3,1.2,0.7,2.6,1.5,3.2c1.3,1,2.9,0.9,4.5-1.3c0-1.6,0-3.9,0-6.1c0-9-0.1-17.9,0.1-26.9
	c0.1-3.3,0.4-6.7,1.2-9.9c2.4-9.6,11.9-15.7,22.3-14.7c9.4,0.9,17,8.6,17.8,18.2c0.2,2.3,0.1,4.6,0.1,6.9c0,9.5,0,18.9,0,28.4
	c0,1.7,0.4,3.4,0.7,5c2.8,1.4,5.2,1.2,8,0.3c0.2-2.2,0.5-4.2,0.5-6.1c0.1-9.2,0-18.4,0.1-27.6c0-3,0.3-6.1,1-9.1
	c2.2-10.3,11.3-16.8,22.1-16c10,0.7,17.8,8.8,18.4,19.2c0.1,2,0.1,4.1,0.1,6.1c0,9.2,0,18.4,0,27.6c0,2,0.4,3.9,0.7,5.7
	c3,1.1,5.4,1.4,8.1-0.1c0.1-2,0.4-4,0.4-6c0-8.4-0.1-16.9,0.1-25.3c0-3.3,0.3-6.6,0.8-9.9c1.7-10.6,10.2-17.6,20.9-17.4
	C344.5,545.2,348.8,547.1,353.4,551.2 M1160.6,593.3c0.3,3.5-0.7,7.1,0.8,10.4c3.9,1,3.9,1,8,0.1c0.1-2.1,0.4-4.3,0.4-6.6
	c0-9.2,0-18.4,0-27.6c0-2-0.1-4.1,0.2-6.1c1.2-9.6,8.7-17.1,18-18.2c10.2-1.2,19,4.2,22.2,13.8c0.9,2.6,1,5.5,1.1,8.3
	c0.1,10.2,0,20.5,0.1,30.7c0,2,0.4,3.9,0.6,5.8c2.9,1.4,5.3,1.3,8.1,0.4c0.1-2.2,0.4-4.2,0.4-6.1c0-9.5,0-18.9,0-28.4
	c0-2-0.1-4.1,0.2-6.1c1.2-9.7,8.7-17.1,18-18.2c10.2-1.2,19.1,4.2,22.2,13.8c0.9,2.8,1.1,6,1.1,9.1c0.1,10.2,0,20.5,0.1,30.7
	c0,1.7,0.4,3.4,0.6,5c2.8,1.4,5.2,1.2,8.1,0.3c0.1-1.9,0.4-3.6,0.4-5.4c0-7.7,0-15.4,0-23c0-3.3-0.2-6.7,0.1-10
	c0.6-6.6,2.6-12.5,8.4-16.5c6.9-4.8,14.2-5.7,21.8-1.9c7.3,3.6,11,9.7,11.3,17.8c0.1,2.3,0.1,4.6,0.1,6.9c0,9,0,17.9,0,26.9
	c0,1.7,0.5,3.4,0.7,5c2.9,1.3,5.3,1.2,8,0.2c0.1-2.2,0.4-4.2,0.4-6.2c0-9.7-0.1-19.5,0.1-29.2c0.1-3.5,0.5-7.3,1.7-10.5
	c3.1-8.1,9.4-12.6,18.2-13c8.7-0.4,15.3,3.4,19.4,11.1c1.7,3.3,2.2,6.8,2.1,10.4c0,10.5,0,21,0,31.5c0,2,0.4,3.9,0.6,5.7
	c3,1.1,5.4,1.3,8.2,0c0.1-2.4,0.3-4.7,0.3-6.9c0-9.5,0.1-18.9,0-28.4c0-3.6,0.5-7.2,1.8-10.5c3.5-9,13.1-14.4,23-12.7
	c7.2,1.2,16.1,7.2,16.7,18.4c0.2,3.1,0.1,6.1,0.1,9.2c0,9.2,0,18.4,0.1,27.6c0.1,3.8,1.1,4.3,5.7,3c0.1-0.9,0.4-1.9,0.4-2.9
	c0-22.8,0-45.6,0-68.3c0-1.2-0.4-2.4-0.7-3.7c-1.5-0.3-2.8-0.4-4-0.7c-3.2-0.7-4.7-2.8-4.8-6c0-1.5,0.1-3.1-0.1-4.6
	c-0.2-2.5,0.7-5.1-1.3-7.7c-2.5-0.1-5.2-0.3-8.3-0.5c-0.3,2.2-0.6,3.9-0.7,5.6c-0.1,2.8,0,5.6-0.2,8.4c-0.2,3.1-1.8,4.7-4.9,4.8
	c-6.4,0.2-12.8,0.2-19.2-0.1c-2.8-0.1-4.6-2.1-5-5c-0.3-2.3-0.1-4.6-0.2-6.9c-0.1-2-0.4-4-0.5-5.9c-3.1-1-5.8-1.1-8.8,0.3
	c-0.1,2.6-0.2,5.1-0.3,7.6c-0.1,2-0.2,4.1-0.7,6.1c-0.5,2.2-2,3.8-4.3,3.8c-6.6,0.2-13.3,0.2-19.9,0c-2.8-0.1-4.6-2.2-5-5
	c-0.3-2.3-0.1-4.6-0.2-6.9c-0.1-2-0.4-4-0.6-6c-3.1-0.9-5.8-1-8.7,0.2c-0.2,2-0.3,3.7-0.4,5.5c-0.1,1.8,0.1,3.6-0.1,5.4
	c-0.5,5.1-2.2,6.9-7.2,7c-5.4,0.1-10.8,0.1-16.1,0c-4.1-0.1-6-1.9-6.5-6c-0.3-2.3-0.1-4.6-0.2-6.9c-0.1-1.7-0.5-3.4-0.7-5
	c-4.7-1-4.7-0.9-8.3,0.5c-0.2,0.5-0.4,0.9-0.5,1.4c-0.1,2.6-0.3,5.1-0.1,7.7c0.4,5.6-2.3,8.8-8.1,8.5c-3.8-0.2-7.7,0-11.5,0
	c-9.3-0.1-9.7-0.6-9.9-10.1c-0.1-2.7,0.8-5.6-1.4-8.3c-1.4-0.1-2.9-0.3-4.4-0.3c-1.2,0-2.4,0.3-3.4,0.5c-0.4,0.8-0.8,1.2-0.9,1.7
	c-0.2,1.8-0.2,3.6-0.3,5.4c-0.1,2,0.1,4.1-0.2,6.1c-0.3,2.9-2.1,4.8-5,4.9c-6.6,0.2-13.3,0.1-19.9-0.1c-2.3-0.1-3.7-1.7-4-4
	c-0.3-2-0.2-4.1-0.2-6.1c-0.1-2.5-0.2-5-0.3-7.5c-3.5-1.2-6.4-1.3-9.6,0c-0.2,1.8-0.4,3.6-0.5,5.3c-0.1,2.3,0.1,4.6-0.1,6.9
	c-0.2,3.5-1.7,5.3-5.2,5.5c-6.1,0.3-12.3,0.3-18.4,0c-3.6-0.1-5.4-2.3-5.6-6c-0.2-2.3,0-4.6-0.1-6.9c-0.1-1.7-0.4-3.4-0.7-5
	c-3.2-1-5.9-1-9,0.1c-0.2,1.4-0.6,2.8-0.7,4.3c-0.1,2.6,0,5.1-0.1,7.7c-0.2,4.4-1.7,5.9-6.2,6c-5.6,0.1-11.3,0.2-16.9,0
	c-4-0.1-5.9-2.2-6.2-6.3c-0.2-2.5,0-5.1-0.1-7.7c-0.1-1.4-0.5-2.8-0.8-4.4c-3.1-0.2-5.8-1-8.2,0c-0.3,0.7-0.4,0.9-0.4,1.2
	c-0.1,2.6-0.2,5.1-0.2,7.7c-0.2,7.7-0.9,8.6-8.5,10c-0.4,0.1-0.8,0.5-1.6,1.1c-0.1,1.7-0.2,3.7-0.2,5.7c0,20.7,0,41.5,0,62.2
	c0,1.8,0.1,3.6,0.3,5.3c0,0.4,0.5,0.8,0.8,1.3c1.4,0,2.8,0,4.6,0c0.2-2.4,0.4-4.4,0.4-6.3c0-8.2,0-16.4,0-24.6
	c0-3.1-0.2-6.2,0.1-9.2c1.4-15.5,17.9-24,31.4-16.2c6.5,3.8,9.8,9.6,10,17C1160.7,573.9,1160.6,582.9,1160.6,593.3 M411.7,614.3
	c-63.2,0-126.4,0-189.6,0c-2.3,0-4.6-0.1-6.9,0c-1.5,0.1-2.9,0.4-4.4,0.7c-0.3,1.4-0.7,2.4-0.7,3.3c0,17.9,0,35.8,0.1,53.7
	c0,0.4,0.5,0.8,0.8,1.2c0.2,0.1,0.5,0.2,0.7,0.1c0.9-0.5,1.8-0.9,2.6-1.5c13.6-10.3,28.6-17.8,44.6-23.7
	c26.3-9.8,53.7-14.8,81.6-16.6c23-1.5,46-1.1,68.9,2.2c17.3,2.5,34.2,5.9,50.8,11.2c19.9,6.4,38.6,15,55.2,27.9
	c0.5,0.4,1.3,0.4,2.5,0.6c0.1-1.8,0.3-3.2,0.3-4.7c-0.2-6.1-0.5-12.3-0.6-18.4c-0.1-10.2,0-20.5-0.1-30.7c0-1.7-0.6-3.3-1-5.5
	C481.7,614.3,447.5,614.3,411.7,614.3 M1304,632.8c15.5,1.8,30.8,4.4,45.9,8.5c24.4,6.6,47.5,15.9,67.8,31.3c0.5,0.4,1.3,0.4,2,0.5
	c0.2-0.7,0.5-1.1,0.5-1.6c0-17.9,0.1-35.8,0-53.7c0-0.9-0.5-1.9-0.8-3.2c-3-0.1-5.8-0.2-8.5-0.2c-96.2,0-192.4,0-288.5,0
	c-1.5,0-3.1-0.1-4.6,0c-1.4,0.1-2.9,0.5-4.4,0.8c-0.1,1.9-0.4,3.4-0.4,4.9c0,17.4,0.1,34.8,0.2,52.2c0,0.2,0.1,0.5,0.3,0.6
	c0.2,0.2,0.5,0.2,1.1,0.5c1.3-0.8,2.8-1.7,4.2-2.7c10.3-7.7,21.5-13.8,33.4-18.7c31-12.9,63.5-19.1,96.9-20.6
	C1266.8,630.5,1284.8,630.5,1304,632.8 M811,528.1c-47.6,0-95.2,0-142.8,0c-2.6,0-5.1,0-7.7,0.2c-0.7,0-1.4,0.5-2.4,0.9
	c0.1,2,0.2,3.9,0.3,6.3c2.9,0.1,5.4,0.3,7.9,0.3c18.7,0,37.4,0,56.1,0c2,0,4.1-0.1,6.1,0.3c3.4,0.6,6,3.4,6.4,6.8
	c0.4,3.4-0.7,6.1-3.6,7.9c-1.5,0.9-3.2,1.6-4.9,2.2c-4.1,1.5-8.2,2.9-12.3,4.4c-15.9,5.7-31.7,11.5-47.1,18.5c-3,1.4-6.2,2.4-9,5.2
	c0,4.9,0,10,0,15.1c0,0.7,0.4,1.3,0.6,1.9c2.3,0.2,3.4-1.3,4.8-2.3c11.1-8.3,23.3-14.7,36.2-20c33.8-14,69.2-19.6,105.5-21
	c11.5-0.4,23,0.1,34.5,0.8c20.5,1.3,40.7,4.4,60.5,9.7c25.1,6.7,49,16.3,69.8,32.4c0.7,0.5,1.7,0.5,3,0.8c0-3.4,0.1-6.2,0-9
	c-0.1-3,0.4-6.1-0.6-9.2c-2-1-3.8-2-5.6-2.7c-5.7-2.2-11.5-4.4-17.3-6.3c-16.7-5.6-33.5-11.1-50.2-16.7c-2.7-0.9-5.3-1.9-7.8-3.2
	c-3.3-1.8-4.8-5-4.3-8.3c0.5-3.5,3.6-6.5,7.3-6.9c2-0.2,4.1-0.1,6.1-0.1c21,0,42,0,63,0c2.3,0,4.6,0,6.9-0.2c0.7,0,1.4-0.5,2.3-1
	c-0.1-1.9-0.2-3.9-0.3-5.6c-0.9-0.4-1.4-0.8-1.8-0.8C918,528.3,865.3,528.2,811,528.1 M608.3,118.2c-6.6-17.6-12.7-35.5-19.6-53.5
	c-0.9,1.2-1.5,1.7-1.7,2.4c-14.6,40.1-29.1,80.1-43.6,120.2c-0.2,0.7,0,1.5,0,2.6c2.1,1.1,4.1,1.3,6.8-0.3c0.1-2.2,0.2-4.7,0.4-7.2
	c0.3-3.4,1.8-5,5.2-5.5c0.8-0.1,1.5-0.1,2.3-0.1c5.9,0,11.8,0,17.6,0c0.8,0,1.5,0,2.3,0.1c3.3,0.5,4.8,2.2,5.1,5.6
	c0.3,2.5-0.6,5.1,1.1,7.7c2.8,0.9,5.7,1,8.2,0c0.5-0.7,0.8-0.9,0.8-1.1c0.1-1.8,0.2-3.6,0.4-5.3c0.3-5.3,1.6-6.7,7-6.9
	c3.1-0.2,6.1-0.1,9.2,0c3.6,0,7.2-0.1,10.7,0.1c3.9,0.3,5.3,1.9,5.7,5.8c0.2,2.5-0.6,5.1,1,7.4c2.2,0.8,4.4,1.2,6.7-1
	C625.5,165.8,617.1,142.6,608.3,118.2 M1041.6,190.7c1.7-0.2,3.4-0.5,5.2-0.7c0.3-2.9,0.3-5.5,0.8-8c0.6-3.4,2.3-5.1,5.6-5.2
	c7.2-0.2,14.3-0.2,21.5,0c3.7,0.1,5.4,2.2,5.9,5.8c0.3,2.5-0.6,5.1,1.2,7.8c1.6,0,3.3,0.1,5,0c0.3,0,0.6-0.7,1.3-1.4
	c-1.1-3.1-2.3-6.5-3.5-9.8c-1.3-3.6-2.6-7.2-3.9-10.8c-1.2-3.4-2.5-6.7-3.7-10.1c-1.3-3.6-2.6-7.2-3.9-10.8
	c-1.2-3.4-2.4-6.7-3.6-10.1c-1.2-3.4-2.6-6.7-3.8-10.1c-1.3-3.6-2.5-7.3-3.8-10.9c-1.2-3.4-2.6-6.7-3.8-10.1
	c-1.3-3.6-2.5-7.3-3.8-10.9c-1.2-3.4-2.5-6.7-3.7-10.1c-1.3-3.6-2.5-7.3-4-10.8c-1.3-3.1-1.6-6.7-4.6-10
	c-15,41.3-29.7,81.8-44.4,122.4c-0.3,0.9-0.4,1.9-0.5,2.9c2.5,1,4.6,1.3,6.8-0.6c0.2-2.5,0.2-5,0.7-7.5c0.6-3.3,2.4-5,5.8-5
	c6.9-0.2,13.8,0,20.7-0.1c3.6,0,6.8,2.6,6.5,6.9c-0.1,1.5,0,3.1,0.2,4.6C1037.8,189.7,1038.8,190.4,1041.6,190.7 M571.4,344
	c-18.4,0-36.9,0-55.3,0c-2.2,0-4.6-0.7-6.6,1.4c0,13.2,0,26.5,0,39.7c0,0.4,0.6,0.8,1.3,1.7c2.3,0,5.1,0,7.9,0c25.6,0,51.2,0,76.8,0
	c21.2,0,42.5,0,63.7,0c2.5,0,5.1,0.6,7.9-1.2c0.1-4.4,0.2-8.9,0.2-13.5c0-4.6,0.1-9.2,0-13.8c-0.1-4.5,0.5-9.1-0.4-13.3
	c-1-0.5-1.4-0.9-1.9-0.9C634.4,344.2,603.7,344.1,571.4,344 M1121.9,358.6c-0.2-4.5,0.6-9.1-0.7-13.7c-3.2-1.4-6.3-0.9-9.3-0.9
	c-46,0-92.1,0-138.1,0c-1.8,0-3.6-0.1-5.4,0c-1.4,0.1-2.9,0.6-4.7,1c0,7.2-0.1,14.1,0,20.9c0.2,6.8-0.8,13.7,0.7,20.3
	c7,0.9,131.5,1.5,153,0.7c1.2,0,2.4-0.3,3.3-0.5c0.4-0.9,0.9-1.3,0.9-1.8C1121.7,376.5,1121.8,368.3,1121.9,358.6 M1049.1,681.7
	c15.4,0,30.7,0,46.1,0c2.2,0,4.6,0.6,6.5-1.3c1-8.4,0.8-24.3-0.5-29.9c-2.5-1.1-5.4-0.6-8.1-0.6c-33.5,0-67,0-100.6,0
	c-1.8,0-3.6-0.1-5.4,0c-3.6,0.2-4.6,1-4.6,4.7c-0.1,7.4-0.1,14.8,0,22.3c0.1,3.9,1,4.7,5.2,4.9c1.8,0.1,3.6,0,5.4,0
	C1011.3,681.7,1029.4,681.7,1049.1,681.7 M647.7,668.7c0-3.1,0.1-6.1,0-9.2c-0.1-3,0.5-6.1-0.9-9.3c-1.6-0.2-3.1-0.4-4.6-0.4
	c-35.8,0-71.7,0-107.5,0c-1.7,0-3.4,0.5-5.2,0.7c-1.2,5.4-0.7,10.6-0.6,15.6c0.1,5-1.1,10.1,0.9,14.8c6.4,0.8,96.4,1.3,113.2,0.6
	c1.2,0,2.4-0.4,3.7-0.5C648.4,677.3,647.4,673.7,647.7,668.7 M109.5,618.8c0-2.6-0.9-4.5-4-4.5c-0.8,0-1.5,0-2.3,0
	c-29.4,0-58.8,0-88.3,0c-1.5,0-2.9,0.4-4.6,0.6c-0.6,6.9-0.9,13.5,0.2,20c8.6,1.9,16.8,3.5,25,5.6c25.4,6.6,49.7,15.8,70.7,32.1
	c0.7,0.5,1.7,0.6,3.2,1.1C109.5,655.4,109.5,637.8,109.5,618.8 M1621,618.7c0-2.2-0.6-4.1-3.3-4.3c-1-0.1-2-0.1-3.1-0.1
	c-29.4,0-58.8,0-88.1,0c-1.5,0-2.9,0.3-4.2,0.5c-1.2,7.1-1.1,52.1,0,58.5c7.6-4.7,14.9-9.7,22.7-13.9c7.6-4.1,15.6-7.7,23.7-10.8
	c8.3-3.2,16.9-5.7,25.5-8c8.6-2.3,17.3-4,26.3-6C1621.5,629.7,1620.9,624.9,1621,618.7 M973.1,396.5c-1.4,0.2-2.9,0.4-4,0.5
	c-0.4,0.8-0.6,1.1-0.5,1.3c3.6,6.7,7.1,13.5,10.9,20.1c0.6,1.1,2.4,1.6,3.8,2c1.2,0.3,2.5,0.1,3.8,0.1c37.1,0,74.2,0,111.4,0
	c2,0,4-0.3,5.7-0.4c7.4-10.6,11.4-18.1,12.2-23c-0.5-0.2-0.9-0.5-1.4-0.5C1068.2,396.6,1021.3,396.5,973.1,396.5 M516,396.6
	c-2.1,0.5-2.2,1.9-1.3,3.4c2.5,4.5,5.1,8.9,7.6,13.3c1.4,2.4,2.8,4.8,4.2,7c1.8,0.1,3.1,0.3,4.4,0.3c39.3,0,78.7-0.1,118-0.2
	c0.2,0,0.5-0.1,0.7-0.2c0.2-0.1,0.4-0.3,0.6-0.4c7.2-10.4,11.1-17.8,11.7-22.6c-0.4-0.2-0.9-0.6-1.3-0.6
	C612.8,396.6,565,396.6,516,396.6 M200.4,661.1c0-3.8,0.1-7.7-0.1-11.5c-0.1-1.4-0.6-2.8-0.9-4.1c-1.2-0.2-1.9-0.4-2.7-0.4
	c-24.5,0-49,0-73.5,0c-1.2,0-2.4,0.5-3.7,0.8c-0.2,1.8-0.4,3.3-0.4,4.8c0,7.9,0,15.8,0,23.7c0,1,0,2,0.1,3.1c0.3,3,1.2,3.9,4.4,4.1
	c0.5,0,1,0,1.5,0c23.2,0,46.5,0,69.7,0c1.7,0,3.3-0.7,5-1C201,674.3,200.2,668.5,200.4,661.1 M1439.5,681.7c18.6,0,37.3,0,55.9,0
	c3.8,0,7.7,0.1,11.5,0c4.1-0.1,5.1-1,5.1-5c0.1-8.9,0.1-17.9,0-26.8c0-1.4-0.8-2.8-1.2-4.2c-1.3-0.2-2.3-0.5-3.3-0.6
	c-24.3,0-48.5,0-72.8,0c-1.2,0-2.4,0.6-3.9,1c0,6.1-0.3,11.9-0.1,17.8c0.2,5.7-0.9,11.6,0.9,17.5
	C1434,681.5,1436,681.6,1439.5,681.7 M798.8,518.1c54.5,0,109,0,163.5,0c2,0,4.1,0.1,6.1,0c1.4-0.1,2.9-0.5,4.6-0.9
	c-0.1-2.8-0.2-5.3-0.4-7.8c-3.5-1-6.6-0.6-9.6-0.6c-97.2,0-194.5,0-291.7,0c-2.8,0-5.6-0.1-8.4,0c-1.5,0.1-2.9,0.4-4.5,0.6
	c-0.6,3-1.1,5.7,0.6,8.8C705.2,518.1,751.2,518.1,798.8,518.1 M620.6,334.5c14.3,0,28.6-0.1,43-0.1c0.2,0,0.5,0,0.7-0.2
	c0.2-0.2,0.2-0.5,0.4-0.9c-0.4-0.5-0.6-1.2-1.2-1.7c-4.3-3.2-8.6-6.4-12.9-9.6c-2.6-2-5.3-2.7-8.5-2.7c-35.8,0.1-71.6,0.1-107.4,0
	c-3.2,0-6,0.7-8.5,2.7c-4.1,3.1-8.2,6.1-12.3,9.2c-1,0.7-2.1,1.5-1.2,3.3C547.9,334.5,583.5,334.5,620.6,334.5 M1088.9,319.4
	c-8.4,0-16.9,0-25.3,0c-24.3,0-48.6,0.1-72.9-0.1c-4.6,0-8.4,1-12,3.9c-3.3,2.8-7,5.2-10.4,7.8c-1,0.7-2.2,1.5-1.2,3.4
	c50.2,0,100.6,0,150.9,0c0.3,0,0.6,0,0.7-0.1c0.2-0.1,0.2-0.4,0.3-0.6c0-0.2,0-0.6-0.1-0.7c-3-2.4-6.3-4.4-9-7.1
	C1104.3,320.7,1098,318.3,1088.9,319.4 M991.9,238.8c0,20.7,0,41.5,0,62.2c0,2.7-0.7,5.6,1.5,8.6c3.2,0.6,6.7,0.5,10.3,0.3
	c3.5-0.2,7.1,1,10.5-1.1c0.1-1.1,0.3-2.1,0.3-3.1c0-26.1,0-52.2,0-78.3c0-1.5-0.4-2.9-0.7-4.3c-3.9-1.2-7.5-0.7-11-0.6
	c-3.5,0.1-7.1-0.9-10.8,1.1C992,228.1,991.9,232.7,991.9,238.8 M534.7,212c38.1-0.1,76.1-0.1,114.2-0.2c0.5,0,0.9-0.4,1.4-0.6
	c1.8-2.2,1.3-4.9,1.3-7.4c0-5.1-0.2-10.2-0.5-15.3c0-0.5-1.5-1.4-2.3-1.4c-0.8,0-2.2,0.8-2.3,1.4c-0.4,2-0.3,4-0.5,6.1
	c-0.3,4.3-1.8,6-6.2,6.2c-5.6,0.2-11.2,0.2-16.9,0c-4.2-0.1-5.9-2-6.4-6.1c-0.3-2.5,0.7-5.1-1.4-7.5c-3.9-0.4-7.9-1-12,0.6
	c-0.1,2.5-0.2,4.8-0.4,7c-0.4,3.8-2.1,5.8-5.7,5.9c-5.9,0.2-11.8,0.2-17.6,0c-3.8-0.1-5.5-2-5.9-5.7c-0.3-2.5-0.3-5-0.5-7.6
	c-4.5-0.9-8.4-0.9-12.7,0c-0.2,1.5-0.4,2.7-0.5,3.9c-0.1,1.3,0,2.6-0.1,3.8c-0.4,3.3-2,5.4-5.3,5.5c-6.4,0.2-12.8,0.2-19.1,0
	c-3-0.1-4.5-2.1-4.8-5c-0.2-2-0.1-4.1-0.2-6.1c-0.1-1.5-0.9-2.3-2.4-2.5c-1.6-0.2-2.8,0.9-3,2.7c-0.1,1-0.1,2-0.1,3.1
	c0,4.6,0,9.2,0,13.8c0,1.5,0.3,2.9,0.4,4.2C528.2,212.6,530.8,211.8,534.7,212 M1042.9,201c-2,0-4.1-0.1-6.1,0
	c-5.8,0.3-9.1-0.5-8.8-8.2c0.1-1.7-0.4-3.4-0.6-5.3c-4.3-0.9-8.3-1-12.4,0.1c-0.2,1.3-0.4,2.3-0.5,3.2c-0.1,1.3,0,2.6-0.1,3.8
	c-0.4,4.1-2.2,6.1-6.3,6.2c-5.9,0.2-11.8,0.1-17.6,0c-3.4-0.1-5.1-1.7-5.8-5.1c-0.5-2.5-0.5-5.1-0.9-7.6c-0.1-0.4-1.2-0.9-1.9-1
	c-0.6,0-1.6,0.4-1.8,0.9c-0.4,0.9-0.6,1.9-0.6,2.9c-0.1,5.4-0.1,10.7,0,16.1c0,1.4,0.6,2.9,1,4.7c4.4,0,8.4,0,12.5,0
	c34.5,0,69.1,0,103.6,0c2.7,0,5.6,0.6,8.1-0.7c1.2-7.5,1.1-18.4-0.2-23.7c-1.6-0.5-3.2-0.6-3.6,1.5c-0.3,2-0.1,4.1-0.3,6.1
	c-0.4,3.7-2.2,5.6-6,5.7c-6.1,0.2-12.3,0.2-18.4,0c-3.1-0.1-4.6-1.7-4.9-4.8c-0.3-2.7-0.4-5.5-0.5-8.3c-4.5-1.1-8.4-1-11.9-0.3
	c-0.6,0.7-0.8,0.9-0.9,1.1c-0.2,1.5-0.3,3-0.4,4.6c-0.4,6.5-1.8,7.8-8.5,7.9C1047.4,201,1045.9,201,1042.9,201 M616.6,278.6
	c0.1,9.7,0.2,19.4,0.3,29.1c0,0.4,0.4,0.9,0.9,1.7c6.5,0.6,13.2,0.9,20.1-0.2c0.2-1.3,0.5-2.3,0.6-3.3c0-26.5,0-53.1,0-79.6
	c0-1.2-0.5-2.4-0.7-3.4c-9.6-1.3-15.8-1-21.1,0.9C616.6,241.5,616.6,259.3,616.6,278.6 M1084.3,222.3c-4.2,0.4-8.6-0.9-12.9,1
	c-0.2,1.5-0.4,2.7-0.4,4c0,26.1,0,52.2,0,78.3c0,1.2,0.4,2.4,0.7,3.8c3.5,1,6.9,0.7,10.1,0.6c3.5-0.1,7.2,1,10.6-1.3
	c0.1-1.5,0.4-3,0.4-4.5c0-25.6,0-51.1,0-76.7c0-1.5-0.4-2.9-0.7-4.6C1089.8,222.5,1087.8,222.4,1084.3,222.3 M559.4,308.5
	c0.2-1,0.6-2,0.6-3c0-26.4,0-52.7,0-79.1c0-1.2-0.5-2.4-0.7-3.5c-8.9-1.3-15.9-1-20.7,0.7c-0.1,0.9-0.3,1.9-0.3,2.9
	c0,26.4,0,52.7,0,79.1c0,1.2,0.4,2.4,0.7,3.9C545.6,309.9,551.9,310.3,559.4,308.5 M607,280.2c0-16.4,0-32.7,0-49.1
	c0-2.7,0.6-5.7-1.4-8.1c-6.3-1.1-29.1-1.1-35.4,0.1c-0.2,1.3-0.6,2.8-0.7,4.3c-0.1,4.1,0,8.2,0,12.3c0,20.5,0,40.9,0,61.4
	c0,2.7-0.8,5.7,1.3,8.1c6.5,1.2,29.2,1.1,35-0.1c0.3-0.4,0.8-0.9,0.8-1.3C606.7,299.1,606.9,290.4,607,280.2 M1024,281.7
	c0,4.6-0.1,9.2,0,13.8c0.2,4.5-0.8,9.1,0.9,13.9c6,0.9,11.9,0.5,17.7,0.4c5.8-0.1,11.6,0.7,17.5-0.7c0.2-1.3,0.5-2.3,0.5-3.3
	c0-26.6,0-53.2,0-79.7c0-1.2-0.6-2.4-1-4c-4,0-7.8,0-11.7,0c-4.1,0-8.2-0.1-12.3,0c-3.7,0.1-7.6-0.8-10.9,0.8
	c-0.4,1-0.7,1.5-0.7,1.9C1024.1,243.4,1024.1,261.8,1024,281.7 M1128.9,601.8c0.3,1.7,1.3,2.8,3,2.8c4.9,0.1,9.7,0.1,14.6,0
	c1.4,0,2.9-0.5,4.6-0.9c0-12.8,0-25.3,0-37.8c0-0.8-0.1-1.5-0.2-2.3c-1.1-5.4-5.5-9-10.9-9c-5.4,0-9.6,3.5-10.7,9.1
	c-0.4,2.2-0.5,4.6-0.5,6.9C1128.8,580.5,1128.8,590.4,1128.9,601.8 M1548.3,554.6c-8,2-10.5,4.7-11,12.3c0,0.5,0,1,0,1.5
	c0,10.5,0,21,0,31.5c0,1.4,0.6,2.9,1,4.7c7.1-0.3,13.9,0.8,20.5-0.6c0.4-0.9,0.7-1.4,0.7-1.8c0.1-12,0.2-24,0.1-36.1
	C1559.5,559.6,1557,557.1,1548.3,554.6 M1610.4,575.2c-0.1-3.8,0.2-7.7-0.3-11.5c-0.8-5.4-5.4-9.1-10.7-9.2
	c-5.4-0.1-9.7,3.4-10.9,8.9c-0.4,1.7-0.5,3.5-0.5,5.3c0,10.2,0,20.4,0,30.6c0,1.5,0.4,2.9,0.6,4.5c3.8,1.3,7.4,0.8,10.9,0.7
	c3.5-0.1,7.1,1,10.9-1.2C1610.4,594.6,1610.4,585.7,1610.4,575.2 M1196.2,604.6c1.7-0.2,3.4-0.4,4.9-0.6c0.3-0.9,0.7-1.4,0.7-1.9
	c0-12,0.1-24,0.1-36c0-1-0.1-2.1-0.4-3c-1.3-5.3-6-8.8-11.2-8.5c-5.1,0.2-9,3.6-10.2,8.8c-0.3,1.5-0.5,3-0.5,4.6
	c0,10.7-0.1,21.5,0,32.2c0,1.4,0.7,2.8,1.1,4.5C1185.6,604.6,1190.2,604.6,1196.2,604.6 M1252.6,585.8c0-5.9,0.1-11.8-0.1-17.6
	c-0.1-2.3-0.3-4.6-1-6.7c-1.7-4.8-6.8-7.5-11.6-6.8c-4.8,0.7-8.3,4.2-9,9.1c-0.2,1.3-0.2,2.5-0.2,3.8c0,10.7,0,21.5,0,32.2
	c0,1.4,0.5,2.8,0.7,4.1c9.5,1.2,16,1,21.2-0.7C1252.6,598,1252.6,592.7,1252.6,585.8 M1302.8,603.4c0.1-0.5,0.4-1,0.4-1.5
	c0-11.8,0.1-23.5,0.1-35.3c0-1-0.1-2.1-0.3-3c-1.2-5.6-6.1-9.4-11.7-9c-5.4,0.4-9.2,4.3-9.9,10c-0.1,1.3-0.1,2.6-0.1,3.8
	c0,10.2,0,20.5,0,30.7c0,1.5,0.3,3,0.5,4.5c0.9,0.3,1.6,0.8,2.3,0.8C1290,604.5,1295.8,604.4,1302.8,603.4 M1392.1,554.7
	c-6.8,1.6-9.5,6-9.4,12.8c0.1,10.9,0,21.9,0.1,32.8c0,1.2,0.4,2.4,0.7,3.9c7.1,0.5,13.8,0.8,20.7-0.2c0.2-1.3,0.5-2.3,0.5-3.3
	c0-11.2,0.1-22.4,0-33.6C1404.5,559.2,1401.7,556.2,1392.1,554.7 M1344,604.6c3.2-0.3,6.6,0.9,10-1.3c0-12.4,0-24.9,0-37.4
	c0-0.5,0-1-0.1-1.5c-0.9-5.8-5.6-9.8-11.1-9.7c-5.7,0.2-9.9,4.2-10.6,10.1c-0.1,1.3-0.1,2.6-0.1,3.8c0,10.2,0,20.4,0,30.7
	c0,1.5,0.3,3,0.5,5C1335.9,604.9,1339.2,604.5,1344,604.6 M484.6,556.6c-3.7,2.6-4.8,6.2-4.8,10.6c0.1,10.9,0,21.9,0.1,32.8
	c0,1.2,0.3,2.5,0.4,3.8c3.6,1.5,7.2,0.8,10.7,0.7c3.4-0.1,7.1,1.1,10.4-1.1c0.1-1.9,0.2-3.7,0.3-5.4c0-9.7,0-19.3,0-29
	c0-1.5,0-3.1-0.1-4.6c-0.6-5.7-5.1-9.8-10.8-9.7C489.1,554.7,487.4,555.5,484.6,556.6 M21.1,603.5c5.1,2.3,10.5,0.7,15.8,1.1
	c1.7,0.1,3.4-0.4,5.2-0.6c0.1-2.2,0.3-3.9,0.3-5.7c0-9.7,0-19.4,0-29.1c0-1.5,0-3.1-0.1-4.6c-0.6-5.7-5.3-9.9-10.8-9.8
	c-5.6,0-10.2,4.3-10.8,9.9c-0.1,1.3-0.1,2.6-0.1,3.8C20.6,579.6,20.7,590.9,21.1,603.5 M81.6,554.6c-8.2,2.5-10.2,4.8-10.2,12.8
	c-0.1,10.7,0,21.4,0,32.1c0,1.5,0.3,2.9,0.5,4.7c7.1,0.6,13.8,0.8,20.9-0.1c0.2-2,0.4-3.8,0.5-5.5c0.1-5.9,0-11.7,0-17.6
	c0-5.1,0-10.2,0-15.3c0-5.2-2.6-8.6-7.4-10.4C84.8,554.9,83.8,554.8,81.6,554.6 M290.2,604.6c2.7-0.3,5.6,0.7,8.2-1
	c0.2-0.8,0.4-1.5,0.4-2.3c0-11.5,0-23,0-34.5c0-1,0-2.1-0.2-3.1c-0.8-4.6-4.5-8.3-9.2-9.1c-4.4-0.7-9.6,1.8-11.3,6.1
	c-0.8,2-1.1,4.5-1.1,6.7c-0.1,10.7-0.1,21.5,0,32.2c0,1.4,0.4,2.9,0.6,4.7C281.7,604.5,285.2,604.6,290.2,604.6 M349.6,572.3
	c-0.1-2.8,0.1-5.6-0.2-8.4c-0.6-4.9-4.9-8.8-9.9-9.2c-4.5-0.4-9.5,2.6-11,6.8c-0.6,1.9-0.8,4-0.8,6c-0.1,11,0,22,0,33
	c0,1.2,0.4,2.4,0.6,4c3.6,0.1,6.9,0.3,10.2,0.1c3.5-0.2,7.1,0.9,11-1.1C349.6,593.6,349.6,583.7,349.6,572.3 M378.4,594.9
	c0.2,3-0.5,6.1,0.8,9.3c6.9,0.5,13.6,0.8,20.5-0.2c0.2-1.3,0.5-2.3,0.5-3.3c0-11.2,0-22.5,0-33.7c0-1.3,0-2.6-0.3-3.8
	c-1.3-6.3-8.2-10.1-14.2-7.9c-4.8,1.8-7.4,5.3-7.4,10.5C378.5,575,378.5,584.2,378.4,594.9 M429.2,584.3c0,3.3-0.1,6.6,0,10
	c0.1,3.2-0.5,6.6,0.6,9.6c8.1,1.2,15.5,1.1,20.9-0.3c0.1-1.7,0.3-3.4,0.3-5.2c0-9.7,0-19.4,0-29.1c0-1.5-0.1-3.1-0.1-4.6
	c0.1-4.6-4.6-9.9-10.7-10c-5.5-0.1-10.3,4.2-10.9,9.8c-0.2,1.5-0.1,3.1-0.1,4.6C429.2,573.6,429.2,578.2,429.2,584.3 M248.2,569.4
	c-0.1-2,0.1-4.1-0.3-6.1c-1.7-8-11-11.3-17.4-6.3c-2.8,2.2-4.1,5.1-4.1,8.7c0,12,0,24,0.1,36c0,0.7,0.5,1.4,0.9,2.7
	c6.7-0.1,13.4,0.8,20-0.4c0.4-0.9,0.7-1.3,0.7-1.8C248.1,591.8,248.1,581.3,248.2,569.4 M916.7,550.2c17.4,5.9,34.8,11.9,52.2,17.8
	c1.1,0.4,2.4,0.2,4,0.3c-0.2-7.7,0.8-15-0.6-22.2c-8.1-1-58.8-0.8-65.5,0.2C909.7,548.3,912.8,548.8,916.7,550.2 M701.8,545.4
	c-12.8,0-25.6,0-38.3,0c-1.7,0-3.4,0.4-5.4,0.7c0.1,7.5-0.4,14.6,0.3,21.6c0.8,0.1,1.4,0.4,1.8,0.3c17.8-7,35.6-14,53.4-21
	c0.4-0.1,0.5-0.7,1.2-1.6C710.7,545.4,707,545.4,701.8,545.4 M153.3,560.8c0.2,1.7,0.4,3.4,0.6,5.3c4.1,0.7,7.8,0.8,12.3-0.2
	c-0.2-8,0.4-15.8-0.3-23.6c0-0.5-0.2-1-0.4-1.5c-1-3.3-3.1-5.1-5.9-5.1c-2.7,0.1-4.8,2-5.6,5.4c-0.4,1.7-0.6,3.5-0.6,5.3
	C153.3,550.7,153.3,555,153.3,560.8 M1474.9,537.4c-1.6-1.6-3.6-2.3-5.6-1.2c-1.4,0.8-2.7,2.3-3.5,3.8c-0.8,1.5-0.9,3.4-1,5.2
	c-0.2,3.3-0.1,6.7,0,10c0.1,3.5-0.4,7.1,0.4,10.5c6.1,1.2,6.1,1.2,11.9-0.1c0.3-8,0.5-16.1-0.2-24.3
	C1476.7,540.3,1476.1,539.4,1474.9,537.4 M1471.5,576.1c-5.8,0.1-11.6-0.1-17.3,0.1c-1.1,3.2-1.1,3.2,0,5.9
	c10.8,0.8,28.6,0.6,34.6-0.6c-0.1-1.5-0.1-3.1-0.2-5.3C1483.1,576.2,1478.1,576.1,1471.5,576.1 M177.6,579.9
	c-0.2-1.1-0.5-2.3-0.8-3.8c-6,0-11.6-0.2-17.2,0c-5.7,0.2-11.6-1-17.3,0.8c0,1.8,0,3.2,0,4.7c1,0.3,1.7,0.7,2.4,0.7
	c9.9,0,19.9,0.1,29.8,0C175.5,582.3,176.4,581.7,177.6,579.9 M1454.1,624.1c0,2.8,0,5.6,0,8.4c0,1.3,0.5,2.5,1.9,2.9
	c1.4,0.4,2.9-0.8,3.2-2.5c0.1-0.7,0.2-1.5,0.2-2.3c0-6.9,0.1-13.7,0-20.6c0-1.5-0.5-3-1-4.4c-0.2-0.6-1.2-1.3-1.6-1.2
	c-0.9,0.2-2,0.8-2.3,1.5c-0.5,1.1-0.5,2.5-0.5,3.7C1454,614,1454.1,618.3,1454.1,624.1 M142.6,624c0,2.3,0,4.6,0,6.9
	c0,1,0.1,2.1,0.6,2.9c0.5,0.7,1.6,1.4,2.3,1.4c0.8,0,1.6-0.9,2.2-1.6c0.3-0.3,0.2-1,0.2-1.5c0-7.9,0-15.8,0-23.6c0-1-0.2-2-0.7-2.9
	c-0.3-0.6-1.1-1.2-1.7-1.2c-0.6-0.1-1.7,0.4-1.8,0.9c-0.6,1.7-1.1,3.4-1.1,5.1C142.5,614.4,142.6,618.5,142.6,624 M1468.9,621.1
	c0,1.8,0,3.6,0,5.3c0,2,0,4.1,0.1,6.1c0.1,1.3,0.5,2.5,2.1,2.7c1.5,0.2,2.4-0.9,2.5-3c0-0.3,0-0.5,0-0.8c0-7.6,0-15.2,0-22.9
	c0-1-0.1-2.2-0.6-2.9c-0.5-0.7-1.6-1.1-2.4-1.2c-0.4,0-1.3,0.9-1.4,1.5C1469.1,610.5,1469,615.1,1468.9,621.1 M176.3,628.5
	c0-6.1,0-12.2,0-18.3c0-1.5-0.1-3.1-0.4-4.5c-0.1-0.5-1.1-1.2-1.6-1.2c-0.6,0-1.6,0.5-1.8,1c-0.5,1.1-0.8,2.4-0.8,3.6
	c-0.1,7.4-0.1,14.8,0,22.1c0,1,0.1,2.1,0.5,3c0.2,0.6,1.1,1.1,1.7,1.1c0.6,0,1.7-0.4,1.8-0.9C176,632.9,176,631.4,176.3,628.5
	 M1483.4,605.8c-0.1,8.9-0.2,17.8-0.3,26.7c0,0.5,0,1.1,0.3,1.5c0.4,0.5,1.2,1.3,1.7,1.2c0.9-0.1,1.8-0.7,2.4-1.3
	c0.4-0.5,0.3-1.5,0.3-2.2c0-7.9,0-15.8,0-23.7c0-0.8,0-1.6-0.4-2.2C1486.6,604.6,1485.6,603.9,1483.4,605.8 M162.1,615.3
	c-0.1-3-0.1-6.1-0.4-9.1c-0.1-0.7-1.3-1.8-2-1.8c-0.7,0-1.5,1.1-2,1.9c-0.3,0.6-0.3,1.5-0.3,2.2c0,7.6,0,15.2,0,22.8
	c0,1,0.1,2,0.6,2.9c0.3,0.5,1.2,1,1.8,1c0.6,0,1.5-0.6,1.7-1.1c0.4-0.9,0.5-1.9,0.5-2.9C162.1,626.4,162.1,621.6,162.1,615.3
	 M1458.6,592.4c-1.6,0.2-3.1,0.4-4.7,0.6c2.4,1.4,5,1.4,7.1,2.4c3,1.4,5.4-0.3,8.1-0.8c1.2-0.2,2.7-0.5,3.8,0c4,2,7.9,0.8,11.8-0.2
	c1.2-0.3,3.1,1,3.6-1.9C1478.7,592.4,1469.3,592.4,1458.6,592.4 M152.2,596c4.4-1.3,8.8-2.6,13.4-0.3c1.4,0.7,8.8-1.5,11.3-2.9
	c-2.4-0.1-4.4-0.4-6.5-0.3c-8.9,0.1-17.9,0.2-26.8,0.3c-0.2,0-0.5,0.1-0.7,0.3c-0.1,0.1,0.1,0.4,0.1,0.7
	C145.7,594.3,148.3,595,152.2,596z"/>
<path class="st1" d="M518,502c0.6,4.8,0.9,9.5-0.3,14.2c-1.1-4.2-0.6-8.6-0.7-13.6C517.1,502,517.7,502,518,502z"/>
<path class="st2" d="M1105,309.8c-0.6,0-1.2-0.2-1.9-0.9C1103.8,308.8,1104.3,309.1,1105,309.8z"/>
<path class="st3" d="M1102.4,602c-0.1,12.5-0.1,24.3-0.2,36.1c0,0.4-0.4,0.9-0.6,1.3c-0.2,0.2-0.4,0.4-0.6,0.5
	c-0.2,0.1-0.5,0.2-0.7,0.2c-1.8,0.1-3.6,0.2-5.4,0.2c-36.6,0-73.2-0.1-109.8-0.1c-0.5,0-0.9-0.3-1.9-0.6c-0.2-1.2-0.5-2.7-0.7-4.1
	c-0.1-0.8,0-1.5,0-2.3c0-65.3,0-130.5,0-195.8c0-2,0.2-4,0.3-6.1c2.7-1.8,5.6-1.1,8.3-1.1c32.2-0.1,64.5,0,96.7,0c3.3,0,6.7,0,10,0
	c1.2,0,2.4,0.3,3.4,0.4c0.4,0.9,0.9,1.3,0.9,1.8C1102.2,488.6,1102.3,544.9,1102.4,602 M1077.7,623.9c3.8-0.1,5.6-2.3,5.7-5.8
	c0.1-3.8,0.1-7.7,0.1-11.5c0-37.8,0-75.7,0-113.5c0-5.4-0.4-10.8-1.9-15.9c-5.1-17.5-22.1-29.5-40.9-28.5c-20.5,1-34.5,14.9-38.1,32
	c-0.8,3.7-0.7,7.6-0.7,11.5c-0.1,40.7,0,81.3,0,122c0,9.5,0.5,9.9,10,9.9C1033.3,623.9,1054.8,623.9,1077.7,623.9z"/>
<path class="st3" d="M647.8,571.3c0,22.8-0.1,44.7-0.1,66.7c0,0.4-0.4,0.9-0.8,1.8c-1,0.2-2.2,0.5-3.4,0.5
	c-20,0.8-108.1,0.3-114.5-0.7c-0.3-0.8-0.7-1.8-0.8-2.7c-0.2-1.8-0.1-3.6-0.1-5.4c0-64.2,0-128.4,0-192.6c0-2.7-0.6-5.6,1-8.1
	c6.4-1,93.6-1.5,114.4-0.7c1.2,0,2.4,0.4,3.3,0.5c0.4,0.6,0.5,0.8,0.7,1c0.1,0.2,0.2,0.5,0.3,0.7c0.1,0.2,0.1,0.5,0.1,0.8
	c0,0.5,0.1,1,0.1,1.5c0,20.2,0,40.4,0,60.6C647.9,520.4,647.9,545.4,647.8,571.3 M547.6,619c0.3,3,2,4.6,5,4.8
	c1.3,0.1,2.6,0.1,3.8,0.1c21.2,0,42.4,0,63.7,0c1.3,0,2.6,0,3.8-0.1c3.5-0.4,4.8-1.8,5.1-5.5c0.1-1.8,0.1-3.6,0.1-5.4
	c0-13.3,0-26.6,0-39.9c0-28.1-0.1-56.3,0.1-84.4c0.1-13.8-8.4-32.7-29.5-38.6c-18.4-5.1-37,2.3-46.5,18.2c-4.2,7-5.7,14.6-5.7,22.7
	C547.6,533.2,547.5,575.4,547.6,619z"/>
<path class="st4" d="M353,550.8c-4.2-3.6-8.5-5.6-13.7-5.7c-10.7-0.2-19.2,6.7-20.9,17.4c-0.5,3.3-0.8,6.6-0.8,9.9
	c-0.1,8.4,0,16.9-0.1,25.3c0,2-0.2,4-0.4,6c-2.7,1.5-5.1,1.3-8.1,0.1c-0.2-1.8-0.6-3.7-0.7-5.7c-0.1-9.2,0-18.4,0-27.6
	c0-2,0-4.1-0.1-6.1c-0.6-10.4-8.4-18.5-18.4-19.2c-10.8-0.8-19.9,5.7-22.1,16c-0.6,3-0.9,6.1-1,9.1c-0.1,9.2,0,18.4-0.1,27.6
	c0,2-0.3,4-0.5,6.1c-2.8,0.9-5.2,1.1-8-0.3c-0.2-1.6-0.6-3.3-0.7-5c-0.1-9.5,0-18.9,0-28.4c0-2.3,0.1-4.6-0.1-6.9
	c-0.8-9.5-8.4-17.3-17.8-18.2c-10.4-1-19.9,5.1-22.3,14.7c-0.8,3.2-1.1,6.6-1.2,9.9c-0.2,9-0.1,17.9-0.1,26.9c0,2.3,0,4.5,0,6.1
	c-1.7,2.2-3.3,2.3-4.5,1.3c-0.9-0.7-1.2-2.1-1.5-3.2c-0.3-1-0.1-2-0.1-3.1c0-21.5,0-43,0-64.5c0-1.3,0.1-2.5,0.2-3.3
	c1.3-2.1,2.9-1.6,4.4-1.9c4.2-0.9,5.4-2.4,5.7-6.9c0.1-2.3,0-4.6,0.1-6.9c0.1-1.5,0.4-3,0.5-4.3c2.9-2,5.6-1.3,8.1-1
	c1.7,2.8,0.9,5.4,1.1,7.9c0.2,2,0,4.1,0.4,6.1c0.6,3.2,2.5,4.9,5.9,5c5.9,0.2,11.8,0.2,17.7,0c3.3-0.1,5.2-1.8,5.8-5.1
	c0.3-1.7,0.3-3.6,0.3-5.3c0.1-2.5,0-5.1,0-7.4c3-2.3,5.7-1.5,8.2-1.3c2.1,1.8,1.4,4,1.5,6c0.1,2.6-0.1,5.1,0.2,7.7
	c0.3,3.2,2.3,5.2,5.5,5.4c3.8,0.2,7.7,0.1,11.5,0.1c2.3,0,4.6,0.1,6.9-0.1c3.6-0.3,5-1.7,5.3-5.3c0.2-3.1,0-6.1,0.1-9.2
	c0-1.2,0.3-2.5,0.5-3.8c3.2-1.5,6.1-1.4,9.4,0c0.1,2.3,0.3,4.5,0.4,6.8c0.1,2-0.1,4.1,0.1,6.1c0.3,2.9,2.1,5.1,4.7,5.2
	c6.6,0.2,13.3,0.2,19.9-0.1c2.9-0.1,4.4-2.1,4.5-5.3c0.2-4.1,0-8.2,0-11.9c3.2-2.8,6.1-2.1,9.5-1.3c0.3,1.4,0.8,2.9,0.9,4.3
	c0.2,2.8,0,5.6,0.1,8.4c0.2,3.9,1.7,5.7,5.6,5.9c6.1,0.2,12.3,0.2,18.4,0c3.2-0.1,5-2.2,5.2-5.5c0.2-4.1,0.2-8.1,0.3-12
	c3.1-2.4,6-1.9,9.1-1c1.8,2.9,1,6.1,1.1,9c0.2,9.2,0.6,9.7,9.5,9.7c3.8,0,7.7,0.1,11.5,0c6.6-0.1,8.2-1.7,8.4-8.1
	c0.1-2.3,0-4.6,0-6.9c0-1.2,0.3-2.4,0.5-3.8c3-0.8,5.7-1,8.4,0.2c1.4,4,1.3,8.1,1.5,12.2c0.2,4.9,1.6,6.3,6.6,6.4
	c5.4,0.1,10.8,0.1,16.1,0c4.1-0.1,6-2,6.5-6.1c0.2-1.8,0.1-3.6,0.1-5.4c0.1-2.3,0.2-4.6,0.2-6.8c2.9-1.7,5.6-1.3,8.8-0.6
	c0.2,1.6,0.6,3,0.6,4.4c0.1,2.8-0.1,5.6,0.1,8.4c0.3,3.7,2.2,5.8,5.8,5.9c6.1,0.2,12.3,0.2,18.4,0c3.1-0.1,4.5-1.5,5.1-4.7
	c0.4-2.2,0.5-4.6,0.7-6.9c0.2-2.2,0.2-4.5,0.3-6.6c4.4-1.3,4.4-1.4,8.9,0.1c0.1,2,0.3,4.2,0.4,6.5c0.1,1.8-0.1,3.6,0.1,5.4
	c0.3,3.9,1.6,5.4,5.5,6.3c1.2,0.3,2.5,0.3,4,0.5c0.3,1.6,0.7,3.1,0.7,4.5c0,21.8,0,43.5,0,65.3c0,1,0.1,2.1-0.1,3.1
	c-0.2,0.9-0.6,2.2-1.4,2.5c-1,0.5-2.3,0.4-3.9,0.6c-0.3-2.1-0.7-3.8-0.7-5.5c-0.1-9,0-17.9-0.1-26.9c0-3.3-0.3-6.6-0.8-9.9
	c-1.4-8.8-8.1-15.6-16.5-17c-8.6-1.4-17.3,2.6-21.7,9.9c-2.1,3.5-2.4,7.2-2.4,11.1c0,10,0,20,0,29.9c0,2.5,0.6,5.1-1.1,7.7
	c-2.3,1.3-4.7,1.1-7.3,0.1c-1.2-3.7-1.4-7.5-1.4-11.3c0-9.5,0-18.9-0.1-28.4c0-8-4.2-13.5-11.1-17.1c-14.6-7.4-30,4.5-29.7,17
	c0.3,10.7,0,21.5,0,32.2c0,2.5,0.6,5.2-1.2,7.5c-2.4,1.2-4.8,1.1-7.2,0.2c-1.8-1.7-1.4-3.9-1.4-5.9c0-9.2,0-18.4,0-27.6
	c0-2.3-0.1-4.6-0.1-6.9c0.2-9.5-9.2-17.9-18.2-18.6c-10.8-0.8-20.3,5.9-22.1,15.9c-0.7,3.5-0.9,7.1-1,10.7c-0.1,8.7,0,17.4-0.1,26.1
	c0,2-0.3,4-0.4,5.8c-4,1.1-4,1.1-7.6,0.2c-1.8-2.2-1.1-4.9-1.1-7.4c-0.1-10.2-0.1-20.5,0-30.7C359.1,560.1,357.6,555.2,353,550.8z"
	/>
<path class="st4" d="M1160.6,592.6c0-9.7,0.1-18.7-0.1-27.6c-0.1-7.5-3.5-13.3-10-17c-13.5-7.8-29.9,0.7-31.4,16.2
	c-0.3,3-0.1,6.1-0.1,9.2c0,8.2,0,16.4,0,24.6c0,2-0.2,4-0.4,6.3c-1.8,0-3.2,0-4.6,0c-0.3-0.5-0.8-0.9-0.8-1.3
	c-0.2-1.8-0.3-3.6-0.3-5.3c0-20.7,0-41.5,0-62.2c0-2,0.2-4,0.2-5.7c0.8-0.6,1.1-1,1.6-1.1c7.5-1.4,8.3-2.3,8.5-10
	c0.1-2.6,0.1-5.1,0.2-7.7c0-0.2,0.2-0.5,0.4-1.2c2.5-1,5.1-0.2,8.2,0c0.3,1.6,0.7,3,0.8,4.4c0.1,2.6-0.1,5.1,0.1,7.7
	c0.3,4.1,2.2,6.2,6.2,6.3c5.6,0.2,11.3,0.2,16.9,0c4.5-0.1,6-1.6,6.2-6c0.1-2.6,0-5.1,0.1-7.7c0.1-1.5,0.5-2.9,0.7-4.3
	c3.1-1.1,5.8-1,9-0.1c0.2,1.6,0.6,3.3,0.7,5c0.1,2.3-0.1,4.6,0.1,6.9c0.3,3.7,2.1,5.9,5.6,6c6.1,0.2,12.3,0.2,18.4,0
	c3.4-0.1,5-2,5.2-5.5c0.2-2.3,0-4.6,0.1-6.9c0.1-1.7,0.3-3.5,0.5-5.3c3.2-1.3,6.1-1.2,9.6,0c0.1,2.5,0.2,5,0.3,7.5
	c0.1,2,0,4.1,0.2,6.1c0.3,2.3,1.7,3.9,4,4c6.6,0.2,13.3,0.3,19.9,0.1c2.9-0.1,4.7-2.1,5-4.9c0.2-2,0.1-4.1,0.2-6.1
	c0.1-1.8,0.1-3.6,0.3-5.4c0-0.5,0.5-0.9,0.9-1.7c1-0.2,2.2-0.5,3.4-0.5c1.5,0,3,0.2,4.4,0.3c2.2,2.7,1.3,5.6,1.4,8.3
	c0.2,9.6,0.6,10.1,9.9,10.1c3.8,0,7.7-0.2,11.5,0c5.8,0.3,8.5-2.8,8.1-8.5c-0.2-2.5,0-5.1,0.1-7.7c0-0.5,0.3-0.9,0.5-1.4
	c3.6-1.4,3.6-1.5,8.3-0.5c0.2,1.5,0.6,3.2,0.7,5c0.2,2.3-0.1,4.6,0.2,6.9c0.5,4.2,2.4,5.9,6.5,6c5.4,0.2,10.8,0.2,16.1,0
	c5-0.1,6.7-1.9,7.2-7c0.2-1.8,0-3.6,0.1-5.4c0.1-1.7,0.3-3.5,0.4-5.5c2.9-1.2,5.6-1.1,8.7-0.2c0.2,2,0.5,4,0.6,6
	c0.1,2.3-0.1,4.6,0.2,6.9c0.3,2.9,2.2,4.9,5,5c6.6,0.2,13.3,0.1,19.9,0c2.3-0.1,3.8-1.7,4.3-3.8c0.4-2,0.5-4,0.7-6.1
	c0.2-2.5,0.2-5,0.3-7.6c3.1-1.3,5.7-1.3,8.8-0.3c0.2,2,0.4,4,0.5,5.9c0.1,2.3-0.1,4.6,0.2,6.9c0.3,2.9,2.2,4.9,5,5
	c6.4,0.2,12.8,0.2,19.2,0.1c3.1-0.1,4.7-1.8,4.9-4.8c0.2-2.8,0-5.6,0.2-8.4c0.1-1.7,0.4-3.4,0.7-5.6c3.1,0.2,5.8,0.3,8.3,0.5
	c2,2.6,1.2,5.3,1.3,7.7c0.1,1.5,0,3.1,0.1,4.6c0.1,3.2,1.6,5.3,4.8,6c1.2,0.3,2.5,0.4,4,0.7c0.2,1.3,0.7,2.5,0.7,3.7
	c0,22.8,0,45.6,0,68.3c0,1-0.3,2-0.4,2.9c-4.6,1.3-5.6,0.8-5.7-3c-0.1-9.2-0.1-18.4-0.1-27.6c0-3.1,0-6.1-0.1-9.2
	c-0.6-11.3-9.5-17.2-16.7-18.4c-9.9-1.7-19.5,3.7-23,12.7c-1.3,3.4-1.8,6.9-1.8,10.5c0.1,9.5,0.1,18.9,0,28.4c0,2.3-0.2,4.5-0.3,6.9
	c-2.7,1.3-5.1,1.1-8.2,0c-0.2-1.8-0.6-3.7-0.6-5.7c-0.1-10.5-0.1-21,0-31.5c0-3.6-0.4-7.1-2.1-10.4c-4.2-7.8-10.7-11.5-19.4-11.1
	c-8.8,0.4-15,4.9-18.2,13c-1.3,3.2-1.6,7-1.7,10.5c-0.2,9.7-0.1,19.5-0.1,29.2c0,2-0.3,4-0.4,6.2c-2.8,1-5.2,1.1-8-0.2
	c-0.2-1.6-0.7-3.3-0.7-5c-0.1-9,0-17.9,0-26.9c0-2.3,0-4.6-0.1-6.9c-0.3-8.1-4-14.2-11.3-17.8c-7.5-3.7-14.9-2.8-21.8,1.9
	c-5.7,4-7.8,10-8.4,16.5c-0.3,3.3-0.1,6.7-0.1,10c0,7.7,0,15.4,0,23c0,1.7-0.3,3.5-0.4,5.4c-2.8,0.9-5.2,1-8.1-0.3
	c-0.2-1.6-0.6-3.3-0.6-5c-0.1-10.2,0.1-20.5-0.1-30.7c0-3-0.2-6.2-1.1-9.1c-3.1-9.6-12-15-22.2-13.8c-9.4,1.1-16.8,8.5-18,18.2
	c-0.3,2-0.2,4.1-0.2,6.1c0,9.5,0,18.9,0,28.4c0,2-0.3,4-0.4,6.1c-2.8,0.9-5.2,1-8.1-0.4c-0.2-1.8-0.6-3.8-0.6-5.8
	c-0.1-10.2,0-20.5-0.1-30.7c0-2.8-0.2-5.7-1.1-8.3c-3.2-9.6-12-15-22.2-13.8c-9.3,1.1-16.8,8.6-18,18.2c-0.2,2-0.2,4.1-0.2,6.1
	c0,9.2,0,18.4,0,27.6c0,2.2-0.3,4.5-0.4,6.6c-4.1,1-4.1,0.9-8-0.1C1160,600.4,1160.9,596.8,1160.6,592.6z"/>
<path class="st4" d="M412.4,614.3c35,0,69.3,0,104,0c0.4,2.1,0.9,3.8,1,5.5c0.1,10.2,0,20.5,0.1,30.7c0.1,6.1,0.4,12.3,0.6,18.4
	c0,1.5-0.2,2.9-0.3,4.7c-1.1-0.3-2-0.3-2.5-0.6c-16.6-12.9-35.3-21.5-55.2-27.9c-16.6-5.3-33.6-8.7-50.8-11.2
	c-22.9-3.3-45.9-3.7-68.9-2.2c-27.9,1.8-55.2,6.8-81.6,16.6c-15.9,5.9-31,13.4-44.6,23.7c-0.8,0.6-1.7,1.1-2.6,1.5
	c-0.2,0.1-0.5-0.1-0.7-0.1c-0.3-0.4-0.8-0.8-0.8-1.2c-0.1-17.9-0.1-35.8-0.1-53.7c0-1,0.4-1.9,0.7-3.3c1.5-0.3,3-0.6,4.4-0.7
	c2.3-0.1,4.6,0,6.9,0C285.3,614.3,348.5,614.3,412.4,614.3z"/>
<path class="st4" d="M1303.3,632.7c-18.5-2.3-36.4-2.2-54.3-1.4c-33.4,1.5-65.9,7.7-96.9,20.6c-11.8,4.9-23.1,11-33.4,18.7
	c-1.4,1-2.9,1.9-4.2,2.7c-0.6-0.3-0.9-0.3-1.1-0.5c-0.2-0.2-0.3-0.4-0.3-0.6c-0.1-17.4-0.1-34.8-0.2-52.2c0-1.5,0.2-3,0.4-4.9
	c1.6-0.3,3-0.7,4.4-0.8c1.5-0.1,3.1,0,4.6,0c96.2,0,192.4,0,288.5,0c2.8,0,5.5,0.2,8.5,0.2c0.3,1.3,0.8,2.3,0.8,3.2
	c0,17.9,0,35.8,0,53.7c0,0.5-0.3,0.9-0.5,1.6c-0.7-0.2-1.5-0.1-2-0.5c-20.3-15.4-43.4-24.7-67.8-31.3
	C1334.8,637.2,1319.5,634.5,1303.3,632.7z"/>
<path class="st4" d="M145.2,534.4c-2.5,10.3-0.8,20.8-1.8,31.7c-1.9,0.2-3.6,0.4-5.3,0.6c-3.9,0.5-5.4,1.9-6,5.7
	c-0.3,2-0.2,4.1-0.2,6.1c0,16.1,0,32.2,0,48.4c0,2.5-0.1,5-0.2,7.6c-4.1,1.7-7.8,1.2-12,0.6c-0.2-1.7-0.5-3.1-0.5-4.6
	c-0.1-7.4,0-14.8,0-22.3c0-52.7,0-105.4,0-158.2c0-3,0.1-6.1,0.2-9.5c2.1-0.4,3.8-0.9,5.5-1c3.1-0.2,6.1,0,9.2-0.2
	c3.2-0.2,4.7-1.7,5-4.7c0.2-1.8,0.1-3.6,0.1-5.4c0-10.2,0-20.5,0-30.7c0-2.5,0-5.1,0-7.9c1.6-0.4,2.7-0.8,3.9-0.9
	c3.7-0.5,5.8-2.6,7.2-6c2.7-6.3,5.9-12.5,8.8-18.6c2.4,0.1,2.4,2,3,3.2c2.4,4.8,4.7,9.7,6.7,14.6c1.7,4.2,4.4,6.8,9.1,6.9
	c0.7,0,1.4,0.5,2.4,0.9c0.1,2.5,0.2,5,0.2,7.5c0,10.2,0,20.5,0,30.7c0,1.8-0.1,3.6,0.1,5.4c0.3,3.2,1.6,4.7,4.8,4.9
	c2.8,0.2,5.6,0,8.4,0.2c2,0.1,3.9,0.5,5.9,0.7c0.3,1.5,0.7,2.4,0.7,3.4c0,63,0,125.9,0,188.9c0,0.7-0.4,1.4-0.7,2.5
	c-3.7,0.8-7.4,0.8-11.6,0c-0.3-1.7-0.9-3.4-0.9-5.1c0.1-13,0.4-26.1,0.5-39.1c0-6.4-0.3-12.8-0.7-19.1c-0.2-3.2-1.5-4.4-4.9-4.9
	c-1.7-0.3-3.5-0.3-5.6-0.5c-0.2-1.6-0.6-3.1-0.6-4.6c-0.1-4.3-0.1-8.7,0-13.1c0.1-4.4-0.3-8.7-1.5-13.5c0-0.6,0-0.6,0.6-0.5
	c1.9,0.8,3.2,1.8,4.6,2.2c4.4,1.5,8.6,0.8,12.2-2.3c3.7-3.1,5-8.1,3.4-12.5c-1.7-4.8-6.2-8.4-10.8-8.5c-7.1-0.2-13.3,6.5-12.5,13.5
	c0.2,2,0.6,4,1,6c0,0,0.1-0.1,0.1-0.1c-0.6-0.5-1.2-0.9-1.8-1.4c-7.1-6.5-12.8-6.9-22.2-1.7c-0.8,0-1.4-0.4-1.3-0.9
	c-0.3-3-0.3-5.7-1.1-8c-1.7-4.8-7.4-8-12.2-7.3c-6.9,1-11.8,7.7-10.4,14.4c1.4,7.1,8.9,11.3,15.8,9
	C141.6,536.2,143.4,535.2,145.2,534.4C145.2,534.4,145.2,534.4,145.2,534.4 M193,471c0-1.3,0.1-2.6,0-3.8
	c-0.5-6.8-3.4-10.1-10.2-11.3c-1.2-0.2-2.5-0.4-3.5-0.6c-0.6-0.9-1.1-1.5-1.5-2.1c-4.1-6.4-7.4-8-14.6-6.5c-2.6,0.5-5,0.6-7.5-0.2
	c-5.4-1.7-9.5,0.4-12.8,4.5c-1.1,1.4-2,2.9-3,4.4c-1.9,0.3-3.7,0.4-5.4,0.9c-4.6,1.4-7.3,4.5-7.9,9.3c-0.2,1.3-0.2,2.6-0.2,3.8
	c0,9.7-0.1,19.4,0,29.1c0.1,6.9,1.1,8,8,8.1c0.5,0,1,0,1.5,0c15.9,0,31.7,0,47.6,0c1.8,0,3.6,0,5.3-0.3c2.3-0.3,3.7-1.8,4-4
	c0.2-1.8,0.2-3.6,0.2-5.4C193.1,488.8,193,480.6,193,471 M142.4,411.8c0.8,2.2,1.2,4.5,2.3,6.4c4.9,9,13.1,10,20.3,8.2
	c7-1.8,12.7-9.8,12.1-16.9c-0.6-7.3-4.4-13.7-12.2-16.1c-8-2.4-15.9,0.8-19.9,7.7C143.2,404,142.1,407.1,142.4,411.8z"/>
<path class="st4" d="M1455.6,533.5c0.3,0.7,1,1.5,0.9,2c-1.9,6.3-1.1,12.7-1.3,19c-0.1,3.8,0.6,7.6-0.7,11.6
	c-2.1,0.2-4.1,0.3-6.1,0.6c-2.9,0.5-4.6,2.2-5,5c-0.2,2-0.2,4.1-0.2,6.1c0,16.4,0,32.7,0,49.1c0,2.5-0.2,5-0.3,7.6
	c-3.9,1.5-7.4,0.8-11.3,0.6c-0.4-1.4-0.9-2.8-1-4.2c-0.2-1.8-0.1-3.6-0.1-5.4c0-58.8,0-117.7,0-176.5c0-2.8,0-5.6,0-8.7
	c1.9-0.4,3.3-0.9,4.7-1c3.3-0.2,6.7,0,10-0.2c3-0.2,4.6-1.7,5.1-4.7c0.3-1.8,0.2-3.6,0.2-5.4c0-10.2,0-20.5,0-30.7
	c0-2.5,0-5.1,0-7.2c0.9-0.7,1.3-1.3,1.7-1.3c5.3-0.2,8.3-3.1,10.1-7.9c1.6-4.3,3.7-8.4,5.7-12.6c0.7-1.5,1.8-2.9,3.1-4.9
	c1.2,1.9,2,3.1,2.6,4.4c2.2,4.6,4.5,9.2,6.5,13.9c1.8,4.1,4.3,6.9,9.2,6.7c0.5,0,0.9,0.3,1.9,0.7c0.2,1.5,0.6,3.1,0.6,4.8
	c0.1,11.8,0,23.5,0,35.3c0,8,0.8,8.6,8.8,8.8c3.3,0.1,6.6-0.5,10.3,0.8c0.3,1.3,0.7,2.7,0.9,4.2c0.2,2,0.1,4.1,0.1,6.1
	c0,58.1,0,116.1,0,174.2c0,3,0,6.1,0,9c-4.2,2.7-8.3,1.6-12.1,1.4c-2-2.2-1.3-4.6-1.3-6.8c-0.1-16.9,0-33.8,0-50.6
	c0-2,0.1-4.1-0.1-6.1c-0.3-3.2-1.5-4.4-4.8-4.9c-1.7-0.3-3.5-0.3-5.6-0.5c-1.5-5.1-0.4-10.3-0.8-15.3c-0.4-5.1-1-10.2-1.3-15.9
	c0.1-0.6,0.1-0.6,0.7-0.5c2.4,1,4.1,2.2,6.1,2.6c5.5,1.3,10.6-1.4,13.2-6.6c2.5-5.1,1.7-10-2.6-13.8c-3.2-2.8-6.9-4.3-11.2-2.9
	c-4.8,1.5-7.7,4.9-8.7,9.7c-0.4,1.9-0.1,4-0.3,6.2c-0.1,0.1-0.4,0.3-0.4,0.3c-0.9-0.4-1.9-0.7-2.7-1.2c-6.2-4.5-14.6-3.6-20,1.7
	c-0.5,0.5-1.2,0.8-2,0.8c0.1-3,0.7-5.5,0.5-8c-0.5-5-4.2-8.5-9.4-9.6c-4.7-1-9.8,1.3-12.3,5.6c-2.5,4.2-2.1,10,0.9,13.6
	C1442.5,538.7,1448.6,538.9,1455.6,533.5 M1447.1,455.9c-6.9,1.5-9.4,6.3-9.8,12.8c-0.1,1,0,2,0,3.1c0,8.2,0,16.4,0,24.5
	c0,1,0,2,0,3.1c0.3,5.1,2.1,6.9,6.9,7.2c1,0.1,2,0,3.1,0c15.8,0,31.7,0,47.5,0c1.3,0,2.6,0.1,3.8-0.1c4.3-0.4,5.9-1.9,5.9-6.4
	c0.1-11,0.2-22,0-33c-0.1-5.9-3.8-10-9.5-11.3c-1.5-0.3-3-0.5-4.4-0.7c-0.8-1.3-1.3-2.5-2.1-3.5c-3.5-4.9-8.1-6.9-13.9-5.2
	c-2.6,0.8-5,0.8-7.5-0.1c-2.6-1-5-0.5-7.5,0.3c-3.1,1-5.2,3.2-6.5,6.1C1452.1,454.9,1450.6,455.9,1447.1,455.9 M1476.4,393.5
	c-3.8-0.9-7.6-1.1-11.3,0.2c-7,2.4-11.7,9.9-11.2,17.4c0.5,7.5,6.4,14.4,13.5,15.7c8.3,1.5,16.4-2.5,19.6-9.9
	c2.9-6.6,0.8-15.7-4.8-20.2C1480.8,395.6,1479.1,394.9,1476.4,393.5z"/>
<path class="st3" d="M811.8,528.1c53.5,0.1,106.2,0.1,158.9,0.2c0.4,0,0.9,0.4,1.8,0.8c0.1,1.7,0.2,3.6,0.3,5.6
	c-1,0.4-1.7,0.9-2.3,1c-2.3,0.1-4.6,0.2-6.9,0.2c-21,0-42,0-63,0c-2,0-4.1-0.1-6.1,0.1c-3.7,0.4-6.7,3.5-7.3,6.9
	c-0.5,3.3,0.9,6.5,4.3,8.3c2.5,1.3,5.1,2.4,7.8,3.2c16.7,5.6,33.5,11.1,50.2,16.7c5.8,2,11.5,4.2,17.3,6.3c1.9,0.7,3.7,1.7,5.6,2.7
	c0.9,3.1,0.5,6.2,0.6,9.2c0.1,2.8,0,5.6,0,9c-1.3-0.3-2.4-0.3-3-0.8c-20.8-16.1-44.7-25.7-69.8-32.4c-19.8-5.3-40-8.3-60.5-9.7
	c-11.5-0.8-23-1.3-34.5-0.8c-36.3,1.4-71.7,7-105.5,21c-12.8,5.3-25,11.7-36.2,20c-1.4,1-2.5,2.6-4.8,2.3c-0.2-0.6-0.6-1.3-0.6-1.9
	c0-5.1,0-10.2,0-15.1c2.8-2.7,6-3.8,9-5.2c15.4-7,31.2-12.8,47.1-18.5c4.1-1.5,8.2-2.9,12.3-4.4c1.7-0.6,3.4-1.2,4.9-2.2
	c2.9-1.8,4-4.6,3.6-7.9c-0.4-3.4-3-6.2-6.4-6.8c-2-0.3-4.1-0.3-6.1-0.3c-18.7,0-37.4,0-56.1,0c-2.5,0-5-0.2-7.9-0.3
	c-0.1-2.4-0.2-4.4-0.3-6.3c1-0.4,1.7-0.9,2.4-0.9c2.6-0.1,5.1-0.2,7.7-0.2C715.8,528.1,763.4,528.1,811.8,528.1z"/>
<path class="st4" d="M608.5,118.8c8.6,23.8,17,47.1,25.4,70.3c-2.3,2.2-4.5,1.8-6.7,1c-1.6-2.3-0.8-4.9-1-7.4
	c-0.4-3.9-1.8-5.6-5.7-5.8c-3.6-0.3-7.2-0.1-10.7-0.1c-3.1,0-6.1-0.1-9.2,0c-5.4,0.3-6.7,1.6-7,6.9c-0.1,1.8-0.2,3.6-0.4,5.3
	c0,0.2-0.3,0.4-0.8,1.1c-2.5,1-5.4,0.9-8.2,0c-1.6-2.6-0.8-5.2-1.1-7.7c-0.4-3.4-1.8-5.1-5.1-5.6c-0.8-0.1-1.5-0.1-2.3-0.1
	c-5.9,0-11.8,0-17.6,0c-0.8,0-1.5,0-2.3,0.1c-3.4,0.5-4.9,2.1-5.2,5.5c-0.2,2.5-0.3,5-0.4,7.2c-2.7,1.6-4.8,1.4-6.8,0.3
	c0-1.1-0.2-1.9,0-2.6c14.5-40.1,29.1-80.2,43.6-120.2c0.2-0.7,0.9-1.2,1.7-2.4C595.6,82.7,601.6,100.6,608.5,118.8z"/>
<path class="st4" d="M1040.9,190.7c-2.1-0.3-3-1-3.1-2.5c-0.1-1.5-0.3-3.1-0.2-4.6c0.3-4.3-2.9-6.9-6.5-6.9
	c-6.9,0.1-13.8-0.1-20.7,0.1c-3.4,0.1-5.2,1.7-5.8,5c-0.4,2.5-0.5,5-0.7,7.5c-2.1,1.9-4.3,1.6-6.8,0.6c0.2-1,0.2-2,0.5-2.9
	c14.6-40.6,29.3-81.1,44.4-122.4c3,3.3,3.3,6.9,4.6,10c1.5,3.5,2.6,7.2,4,10.8c1.2,3.4,2.5,6.7,3.7,10.1c1.3,3.6,2.5,7.3,3.8,10.9
	c1.2,3.4,2.6,6.7,3.8,10.1c1.3,3.6,2.5,7.3,3.8,10.9c1.2,3.4,2.5,6.7,3.8,10.1c1.2,3.4,2.4,6.7,3.6,10.1c1.3,3.6,2.6,7.2,3.9,10.8
	c1.2,3.4,2.5,6.7,3.7,10.1c1.3,3.6,2.6,7.2,3.9,10.8c1.2,3.3,2.4,6.7,3.5,9.8c-0.7,0.7-1,1.4-1.3,1.4c-1.7,0.1-3.5,0-5,0
	c-1.8-2.6-0.9-5.3-1.2-7.8c-0.4-3.7-2.2-5.7-5.9-5.8c-7.2-0.2-14.3-0.2-21.5,0c-3.3,0.1-5.1,1.8-5.6,5.2c-0.4,2.5-0.5,5-0.8,8
	C1045,190.2,1043.3,190.5,1040.9,190.7z"/>
<path class="st4" d="M572.2,344c31.5,0.1,62.2,0.1,92.9,0.2c0.4,0,0.9,0.4,1.9,0.9c0.9,4.2,0.3,8.8,0.4,13.3c0.1,4.6,0,9.2,0,13.8
	c0,4.6-0.1,9.1-0.2,13.5c-2.8,1.9-5.4,1.2-7.9,1.2c-21.2,0-42.5,0-63.7,0c-25.6,0-51.2,0-76.8,0c-2.8,0-5.6,0-7.9,0
	c-0.8-1-1.3-1.4-1.3-1.7c0-13.3,0-26.6,0-39.7c2-2.1,4.4-1.4,6.6-1.4C534.6,344,553,344,572.2,344 M604.2,379.4
	c1.5,0,3.1,0.2,4.6-0.1c6.6-1,11.3-6.3,11.9-13.1c0.4-5.6-3.5-12.1-8.9-13.9c-7.6-2.5-12.7-0.6-16.9,5c-3.8,5.2-3.6,12,0.6,16.9
	C597.4,376.7,599.7,378.7,604.2,379.4 M557.4,359.3c-1.6,3.6-1.9,7.3-0.5,11.1c2.5,6.8,9.1,10.3,16.7,8.8
	c6.2-1.2,11.3-8.1,10.7-14.8c-0.6-7.1-6.5-12.7-13.7-13C565.1,351.3,560.9,353.5,557.4,359.3 M540.5,352.8c-2-0.5-3.9-1.1-5.9-1.3
	c-5.4-0.6-9.3,2-12.3,6.2c-3.4,4.8-3.3,11.5,0.5,16.4c4.3,5.6,9.6,6.3,15.7,4.8c5.6-1.4,9.1-6.5,9.4-12.5
	C548.2,360.8,546.3,356.4,540.5,352.8 M628.7,362.7c-2,9.5,5.5,17.3,14.6,17c7.3-0.2,13.3-7.8,13.4-13.3c0.1-7.1-4.9-13.7-11.9-14.7
	C639.2,350.7,631.3,352.9,628.7,362.7z"/>
<path class="st4" d="M1121.9,359.4c-0.1,8.9-0.1,17.1-0.2,25.3c0,0.4-0.4,0.9-0.9,1.8c-0.9,0.1-2.1,0.4-3.3,0.5
	c-21.5,0.8-146.1,0.3-153-0.7c-1.5-6.6-0.6-13.5-0.7-20.3c-0.2-6.9,0-13.8,0-20.9c1.9-0.4,3.3-0.8,4.7-1c1.8-0.2,3.6,0,5.4,0
	c46,0,92.1,0,138.1,0c3,0,6.1-0.5,9.3,0.9C1122.4,349.5,1121.6,354.1,1121.9,359.4 M1101.6,352.1c-2.3-0.2-4.6-0.7-6.8-0.5
	c-7,0.6-12.6,7.2-12.4,14.3c0.2,5.8,4.8,12.2,10,13.2c8.1,1.5,12.3,0,16.6-6.4c3.6-5.4,2.7-12-2-16.9
	C1105.8,354.5,1104.2,353.7,1101.6,352.1 M1038.7,367.2c-0.2-1.8-0.1-3.6-0.6-5.3c-2.2-7.7-8.7-11.7-16.4-10.3
	c-6.9,1.2-12,8-11.6,15c0.4,5.8,6.4,12.8,13,12.9C1030.9,379.6,1035.2,376.7,1038.7,367.2 M1050.9,376c1.3,0.8,2.5,1.9,3.9,2.4
	c11,4,20.9-3.2,19.9-14.5c-0.7-7.1-6.6-12.5-14-12.5c-7.8,0-13.3,4.9-14,12.3C1046.3,368,1047.1,371.9,1050.9,376 M977,374.2
	c1.1,1,2.1,2.3,3.4,3.1c5,3,10.2,3.3,15.2,0.3c5.4-3.2,7.4-8.2,6.7-14.3c-0.8-6.6-6.7-11.6-13.8-11.8c-7.6-0.3-13.4,5.4-14,11.4
	C974.1,366.5,974.3,370,977,374.2z"/>
<path class="st4" d="M1048.4,681.7c-18.9,0-37.1,0-55.3,0c-1.8,0-3.6,0.1-5.4,0c-4.2-0.2-5.2-1-5.2-4.9c-0.1-7.4-0.1-14.8,0-22.3
	c0.1-3.6,1-4.5,4.6-4.7c1.8-0.1,3.6,0,5.4,0c33.5,0,67,0,100.6,0c2.8,0,5.6-0.4,8.1,0.6c1.3,5.6,1.5,21.5,0.5,29.9
	c-1.9,1.9-4.3,1.3-6.5,1.3C1079.8,681.7,1064.5,681.7,1048.4,681.7z"/>
<path class="st4" d="M647.7,669.5c-0.3,4.2,0.6,7.9-0.9,11.6c-1.3,0.2-2.5,0.5-3.7,0.5c-16.8,0.7-106.8,0.2-113.2-0.6
	c-2-4.7-0.8-9.8-0.9-14.8c-0.1-5.1-0.6-10.2,0.6-15.6c1.7-0.3,3.4-0.7,5.2-0.7c35.8,0,71.7,0,107.5,0c1.5,0,3,0.3,4.6,0.4
	c1.5,3.2,0.8,6.3,0.9,9.3C647.8,662.6,647.7,665.7,647.7,669.5z"/>
<path class="st4" d="M10.3,561.9c-0.1-4.1-0.4-8.2-0.4-12.3c-0.1-10.8,0-21.5,0-32.3c0-2.5,0.2-5,0.3-7.4c3.1-1.6,5.8-1.5,9-0.7
	c0.3,1.4,0.9,2.8,1,4.2c0.2,3.3,0,6.7,0.2,10c0.2,2.8,1.7,4.4,4.4,4.5c6.4,0.2,12.8,0.2,19.2,0.1c3.3-0.1,5.1-2.1,5.5-5.3
	c0.2-1.8,0.1-3.6,0.1-5.4c0.1-2.5,0.1-5,0.2-7.6c3.1-1.5,5.7-1.2,8.9-0.5c0.2,1.9,0.5,3.6,0.6,5.3c0.1,2.6-0.1,5.1,0.2,7.7
	c0.5,4,2.5,5.8,6.7,5.9c5.4,0.1,10.8,0.1,16.1,0c4.6-0.1,6.5-1.9,7-6.4c0.2-2.3,0-4.6,0.1-6.9c0.1-1.7,0.3-3.5,0.5-5.4
	c3-0.9,5.7-1.1,8.6,0.5c0.2,1.2,0.5,2.4,0.5,3.7c0.1,2,0,4.1,0,6.1c0.2,6.5,0.9,7.3,7.2,8.5c0.7,0.1,1.5,0.4,2.5,0.7
	c0.2,1.7,0.5,3.4,0.5,5.1c0,21.2,0,42.5,0,63.7c0,1.5-0.1,3.1-0.3,4.6c-0.2,1.5-1.9,2.4-3.5,2.2c-1.5-0.2-2.2-1.3-2.3-2.6
	c-0.1-1.8-0.1-3.6-0.1-5.4c0-8.2,0.1-16.4,0-24.6c0-3.3-0.3-6.6-0.9-9.9c-1.4-8.6-8.3-15.5-16.7-16.8c-8.9-1.4-17.9,3.1-22,10.8
	c-1.6,3.1-1.9,6.3-1.9,9.7c0,10,0,20,0,29.9c0,2.5-0.2,5-0.2,7.2c-2.6,2.4-5.1,1.8-8.1,1.2c-0.3-1.6-0.8-3.2-0.8-4.9
	c-0.1-9,0-17.9-0.1-26.9c0-3.3-0.3-6.6-0.8-9.9c-1.3-8.6-7.4-15.1-15.6-17c-8.2-1.9-17.4,1.8-22.1,9c-1.2,1.9-1.9,4.2-3.1,6.8
	C10.7,561.8,10.3,561.9,10.3,561.9z"/>
<path class="st4" d="M109.5,619.5c0,18.3,0,35.9,0,54.2c-1.5-0.5-2.6-0.6-3.2-1.1c-21.1-16.3-45.3-25.5-70.7-32.1
	c-8.1-2.1-16.4-3.7-25-5.6c-1.1-6.5-0.8-13.1-0.2-20c1.7-0.2,3.1-0.6,4.6-0.6c29.4,0,58.8,0,88.3,0c0.8,0,1.5,0,2.3,0
	C108.6,614.3,109.5,616.2,109.5,619.5z"/>
<path class="st4" d="M1621.1,619.4c-0.1,5.5,0.4,10.3-0.5,15.4c-9,2-17.7,3.7-26.3,6c-8.6,2.3-17.2,4.9-25.5,8
	c-8.1,3.1-16,6.7-23.7,10.8c-7.8,4.2-15.1,9.2-22.7,13.9c-1.2-6.5-1.2-51.5,0-58.5c1.3-0.2,2.8-0.5,4.2-0.5c29.4,0,58.8,0,88.1,0
	c1,0,2,0,3.1,0.1C1620.5,614.6,1621,616.4,1621.1,619.4z"/>
<path class="st4" d="M1615.2,508.9c0.6,0,1.3-0.1,2.7,0.2c1.5,0.5,2.2,0.8,2.9,1c0.1,15.3,0.2,30.5-0.2,46.5c-1,0.7-1.6,0.7-2.2,0.7
	c-0.8-1.3-1.4-2.7-2.3-4c-5.3-7.1-13.7-9.9-22.5-7.7c-8,2-13.9,9.2-14.9,17.7c-0.2,2-0.2,4.1-0.2,6.1c0,8.7,0,17.4,0,26.1
	c0,2.5,0,5.1,0,7.5c-2.9,2.1-5.5,1.6-8.6,0.5c-0.2-2-0.5-4-0.5-5.9c-0.1-10.2,0-20.5-0.1-30.7c0-2.8-0.3-5.7-1.1-8.3
	c-2.5-8.2-10.7-14.9-22.3-13.6c-9.1,1-16.7,8.6-17.9,18.3c-0.2,2-0.2,4.1-0.2,6.1c0,9.5,0,18.9,0,28.4c0,2-0.3,4-0.4,5.9
	c-4.7,0.6-5.4,0.2-5.6-2.9c-0.1-1.3-0.1-2.6-0.1-3.8c0-20.7,0-41.5,0-62.2c0-2,0.3-4,0.4-6.1c1.3-0.3,2.3-0.4,3.3-0.6
	c4.8-0.9,6.2-2.3,6.5-6.9c0.3-3.5,0.2-7.1,0.4-10.7c3-1.6,5.6-1.4,8.7-0.5c0.2,1.7,0.6,3.4,0.6,5.2c0.1,2.6-0.1,5.1,0.2,7.7
	c0.3,2.9,2.1,5,4.9,5.1c6.6,0.2,13.3,0.2,19.9,0c2.6-0.1,4-1.8,4.3-4.6c0.2-2,0.1-4.1,0.2-6.1c0.1-2.3,0.3-4.5,0.4-6.8
	c3.3-1.4,6.2-1.3,9.7-0.2c0.1,2.5,0.3,5,0.3,7.5c0.1,1.5-0.1,3.1,0.1,4.6c0.3,3.4,2,5.5,5.2,5.6c6.4,0.2,12.8,0.2,19.2,0
	c3.2-0.1,4.7-2.2,4.9-5.7c0.2-3.6,0.1-7.2,0.7-11.5C1613,509.6,1614.1,509.2,1615.2,508.9z"/>
<path class="st4" d="M973.8,396.5c47.5,0,94.4,0,141.2,0.1c0.5,0,0.9,0.3,1.4,0.5c-0.8,4.9-4.8,12.4-12.2,23
	c-1.7,0.1-3.7,0.4-5.7,0.4c-37.1,0-74.2,0-111.4,0c-1.3,0-2.6,0.2-3.8-0.1c-1.4-0.4-3.2-1-3.8-2c-3.8-6.6-7.3-13.4-10.9-20.1
	c-0.1-0.1,0.2-0.4,0.5-1.3C970.3,396.9,971.7,396.7,973.8,396.5z"/>
<path class="st4" d="M516.6,396.6c48.4,0,96.2,0,144,0.1c0.4,0,0.9,0.4,1.3,0.6c-0.7,4.8-4.5,12.2-11.7,22.6
	c-0.2,0.1-0.4,0.3-0.6,0.4c-0.2,0.1-0.5,0.2-0.7,0.2c-39.3,0.1-78.7,0.1-118,0.2c-1.3,0-2.5-0.2-4.4-0.3c-1.3-2.2-2.8-4.6-4.2-7
	c-2.6-4.4-5.1-8.8-7.6-13.3C513.7,398.5,513.9,397.1,516.6,396.6z"/>
<path class="st4" d="M200.4,661.9c-0.2,6.6,0.5,12.5-0.7,18.7c-1.7,0.4-3.3,1-5,1c-23.2,0.1-46.5,0-69.7,0c-0.5,0-1,0-1.5,0
	c-3.2-0.3-4.1-1.2-4.4-4.1c-0.1-1-0.1-2-0.1-3.1c0-7.9,0-15.8,0-23.7c0-1.5,0.3-3,0.4-4.8c1.3-0.3,2.5-0.8,3.7-0.8
	c24.5,0,49,0,73.5,0c0.8,0,1.5,0.2,2.7,0.4c0.3,1.3,0.9,2.7,0.9,4.1C200.5,653.5,200.4,657.3,200.4,661.9z"/>
<path class="st4" d="M1438.8,681.7c-2.7-0.1-4.8-0.2-7.1-0.3c-1.9-5.9-0.8-11.7-0.9-17.5c-0.2-5.8,0-11.7,0.1-17.8
	c1.5-0.4,2.7-1,3.9-1c24.3-0.1,48.5,0,72.8,0c1,0,2,0.3,3.3,0.6c0.4,1.4,1.2,2.8,1.2,4.2c0.1,8.9,0.1,17.9,0,26.8c0,4-1,4.8-5.1,5
	c-3.8,0.1-7.7,0-11.5,0C1476.8,681.7,1458.1,681.7,1438.8,681.7z"/>
<path class="st3" d="M798,518.1c-46.8,0-92.8,0-138.9,0c-1.7-3-1.2-5.7-0.6-8.8c1.5-0.2,3-0.5,4.5-0.6c2.8-0.1,5.6,0,8.4,0
	c97.2,0,194.5,0,291.7,0c3,0,6.1-0.4,9.6,0.6c0.1,2.6,0.2,5,0.4,7.8c-1.8,0.4-3.2,0.8-4.6,0.9c-2,0.1-4.1,0-6.1,0
	C907.7,518.1,853.2,518.1,798,518.1z"/>
<path class="st4" d="M619.8,334.5c-36.3,0-71.9,0-107.3,0c-0.9-1.8,0.2-2.5,1.2-3.3c4.1-3.1,8.2-6,12.3-9.2c2.6-2,5.3-2.7,8.5-2.7
	c35.8,0.1,71.6,0.1,107.4,0c3.2,0,6,0.7,8.5,2.7c4.3,3.3,8.6,6.4,12.9,9.6c0.5,0.4,0.8,1.2,1.2,1.7c-0.2,0.4-0.2,0.7-0.4,0.9
	c-0.2,0.1-0.5,0.2-0.7,0.2C649.2,334.4,634.9,334.5,619.8,334.5z"/>
<path class="st4" d="M1089.6,319.4c8.3-1.2,14.7,1.2,20.3,6.5c2.8,2.6,6,4.7,9,7.1c0.1,0.1,0.1,0.4,0.1,0.7
	c-0.1,0.2-0.1,0.5-0.3,0.6c-0.2,0.1-0.5,0.1-0.7,0.1c-50.4,0-100.7,0-150.9,0c-0.9-1.9,0.3-2.6,1.2-3.4c3.5-2.6,7.1-5,10.4-7.8
	c3.5-3,7.4-4,12-3.9c24.3,0.2,48.6,0.1,72.9,0.1C1072,319.4,1080.5,319.4,1089.6,319.4z"/>
<path class="st4" d="M991.9,238c0.1-5.3,0.1-9.9,0.2-14.6c3.7-2,7.4-1,10.8-1.1c3.5-0.1,7.1-0.6,11,0.6c0.2,1.4,0.7,2.9,0.7,4.3
	c0,26.1,0,52.2,0,78.3c0,1-0.2,2-0.3,3.1c-3.3,2.1-7,1-10.5,1.1c-3.5,0.2-7.1,0.3-10.3-0.3c-2.3-3-1.5-5.9-1.5-8.6
	C991.8,280.2,991.9,259.5,991.9,238z"/>
<path class="st4" d="M534,212c-3.2-0.2-5.8,0.6-8.6-1.1c-0.1-1.2-0.4-2.7-0.4-4.2c-0.1-4.6,0-9.2,0-13.8c0-1,0-2,0.1-3.1
	c0.2-1.9,1.3-2.9,3-2.7c1.5,0.2,2.3,1,2.4,2.5c0.1,2,0.1,4.1,0.2,6.1c0.3,3,1.8,4.9,4.8,5c6.4,0.2,12.8,0.3,19.1,0
	c3.2-0.1,4.9-2.2,5.3-5.5c0.1-1.3,0-2.6,0.1-3.8c0.1-1.2,0.3-2.4,0.5-3.9c4.3-0.9,8.3-0.9,12.7,0c0.2,2.6,0.2,5.1,0.5,7.6
	c0.4,3.7,2.1,5.6,5.9,5.7c5.9,0.2,11.8,0.2,17.6,0c3.6-0.1,5.3-2.1,5.7-5.9c0.2-2.3,0.2-4.5,0.4-7c4.1-1.6,8.1-1,12-0.6
	c2.1,2.4,1.1,5,1.4,7.5c0.5,4.1,2.1,6,6.4,6.1c5.6,0.2,11.2,0.2,16.9,0c4.4-0.2,5.8-1.8,6.2-6.2c0.2-2,0-4.1,0.5-6.1
	c0.1-0.6,1.5-1.4,2.3-1.4c0.8,0,2.3,0.8,2.3,1.4c0.3,5.1,0.5,10.2,0.5,15.3c0,2.5,0.5,5.2-1.3,7.4c-0.5,0.2-1,0.6-1.4,0.6
	C610.9,211.9,572.8,211.9,534,212z"/>
<path class="st4" d="M1043.6,201c2.3,0,3.8,0,5.3,0c6.7-0.2,8.1-1.5,8.5-7.9c0.1-1.5,0.2-3,0.4-4.6c0-0.2,0.3-0.4,0.9-1.1
	c3.5-0.7,7.4-0.8,11.9,0.3c0.2,2.9,0.3,5.6,0.5,8.3c0.3,3.1,1.8,4.7,4.9,4.8c6.1,0.2,12.3,0.2,18.4,0c3.7-0.1,5.6-2.1,6-5.7
	c0.2-2,0-4.1,0.3-6.1c0.3-2,1.9-2,3.6-1.5c1.3,5.3,1.4,16.2,0.2,23.7c-2.5,1.3-5.3,0.7-8.1,0.7c-34.5,0-69.1,0-103.6,0
	c-4.1,0-8.2,0-12.5,0c-0.4-1.8-0.9-3.3-1-4.7c-0.1-5.4-0.1-10.7,0-16.1c0-1,0.2-2.1,0.6-2.9c0.3-0.5,1.2-1,1.8-0.9
	c0.7,0,1.8,0.5,1.9,1c0.4,2.5,0.5,5.1,0.9,7.6c0.6,3.4,2.3,5,5.8,5.1c5.9,0.2,11.8,0.2,17.6,0c4.1-0.1,5.9-2.1,6.3-6.2
	c0.1-1.3,0-2.6,0.1-3.8c0.1-1,0.3-2,0.5-3.2c4.1-1.1,8-1,12.4-0.1c0.2,1.8,0.7,3.6,0.6,5.3c-0.3,7.7,2.9,8.5,8.8,8.2
	C1038.8,200.9,1040.8,201,1043.6,201z"/>
<path class="st4" d="M616.6,277.9c0-18.6,0-36.4,0-54c5.3-1.9,11.4-2.1,21.1-0.9c0.2,1,0.7,2.2,0.7,3.4c0,26.5,0,53.1,0,79.6
	c0,1-0.3,2-0.6,3.3c-6.9,1.1-13.6,0.8-20.1,0.2c-0.5-0.9-0.9-1.3-0.9-1.7C616.7,298,616.6,288.3,616.6,277.9z"/>
<path class="st4" d="M1085.1,222.3c2.7,0.1,4.7,0.3,7.1,0.4c0.3,1.7,0.7,3.2,0.7,4.6c0,25.6,0,51.1,0,76.7c0,1.5-0.3,3-0.4,4.5
	c-3.4,2.3-7.1,1.2-10.6,1.3c-3.3,0.1-6.6,0.4-10.1-0.6c-0.2-1.4-0.7-2.6-0.7-3.8c0-26.1,0-52.2,0-78.3c0-1.2,0.3-2.5,0.4-4
	C1075.7,221.4,1080.1,222.7,1085.1,222.3z"/>
<path class="st4" d="M558.8,308.9c-6.9,1.3-13.2,1-19.9,0.6c-0.3-1.5-0.7-2.7-0.7-3.9c0-26.4,0-52.7,0-79.1c0-1,0.2-2,0.3-2.9
	c4.8-1.7,11.8-1.9,20.7-0.7c0.2,1.1,0.7,2.3,0.7,3.5c0,26.4,0,52.7,0,79.1C560,306.5,559.6,307.5,558.8,308.9z"/>
<path class="st4" d="M607,281c-0.1,9.4-0.3,18.1-0.5,26.8c0,0.4-0.5,0.9-0.8,1.3c-5.8,1.2-28.4,1.3-35,0.1c-2-2.4-1.3-5.3-1.3-8.1
	c-0.1-20.5,0-40.9,0-61.4c0-4.1-0.1-8.2,0-12.3c0-1.5,0.5-2.9,0.7-4.3c6.3-1.2,29-1.2,35.4-0.1c2,2.4,1.4,5.3,1.4,8.1
	C607,247.4,607,263.8,607,281 M592.1,231.7c-11.5-1.1-15.5,2.5-15.6,13.9c-0.1,15.3,0,30.6,0,45.9c0,1.3,0,2.6,0.1,3.8
	c0.3,3.5,1.6,5.1,5.3,5.3c4.3,0.3,8.7,0.3,13,0c3.5-0.2,4.8-1.9,5.2-5.5c0.1-0.8,0.1-1.5,0.1-2.3c0-16.3,0-32.6,0-49
	C600.1,238.6,598.4,234.5,592.1,231.7z"/>
<path class="st4" d="M1024,281c0.1-19.2,0.1-37.6,0.2-56c0-0.5,0.3-0.9,0.7-1.9c3.3-1.6,7.2-0.6,10.9-0.8c4.1-0.2,8.2,0,12.3,0
	c3.8,0,7.6,0,11.7,0c0.4,1.6,1,2.8,1,4c0.1,26.6,0.1,53.2,0,79.7c0,1-0.3,2-0.5,3.3c-5.9,1.4-11.7,0.6-17.5,0.7
	c-5.8,0.1-11.7,0.5-17.7-0.4c-1.7-4.8-0.8-9.4-0.9-13.9C1023.9,290.9,1024,286.3,1024,281 M1052.1,235.4c-1.2-1-2.2-2.1-3.6-2.8
	c-7.7-4.2-15.6-0.6-17.7,8c-0.5,2.2-0.7,4.5-0.7,6.8c-0.1,14.5,0,29.1,0,43.6c0,1.5-0.1,3.1,0.1,4.6c0.5,3.2,2.3,5.1,5.6,5.3
	c4.6,0.2,9.2,0.2,13.8,0c3-0.1,4.4-1.8,4.8-5c0.1-1,0.1-2,0.1-3.1c0-16.1,0-32.2,0-48.2C1054.6,241.6,1054.3,238.9,1052.1,235.4z"/>
<path class="st3" d="M1128.8,601.1c0-10.7-0.1-20.6,0-30.6c0-2.3,0-4.6,0.5-6.9c1.1-5.6,5.4-9.1,10.7-9.1c5.3,0,9.7,3.7,10.9,9
	c0.2,0.7,0.2,1.5,0.2,2.3c0,12.5,0,25,0,37.8c-1.8,0.4-3.2,0.9-4.6,0.9c-4.9,0.1-9.7,0-14.6,0
	C1130.2,604.5,1129.1,603.5,1128.8,601.1z"/>
<path class="st3" d="M1548.9,554.6c8,2.5,10.6,5,10.7,11.6c0.2,12,0,24-0.1,36.1c0,0.5-0.4,0.9-0.7,1.8c-6.6,1.3-13.4,0.3-20.5,0.6
	c-0.4-1.8-1-3.3-1-4.7c-0.1-10.5,0-21,0-31.5c0-0.5,0-1,0-1.5C1537.8,559.3,1540.3,556.5,1548.9,554.6z"/>
<path class="st3" d="M1610.4,576c0,9.7,0,18.6,0,27.4c-3.8,2.2-7.4,1.1-10.9,1.2c-3.5,0.1-7.1,0.7-10.9-0.7c-0.2-1.5-0.6-3-0.6-4.5
	c-0.1-10.2-0.1-20.4,0-30.6c0-1.8,0.1-3.6,0.5-5.3c1.2-5.5,5.5-9,10.9-8.9c5.3,0.1,9.9,3.8,10.7,9.2
	C1610.6,567.5,1610.3,571.4,1610.4,576z"/>
<path class="st3" d="M1195.5,604.6c-5.3,0-9.9,0-14.8,0c-0.5-1.7-1.1-3.1-1.1-4.5c-0.1-10.7-0.1-21.5,0-32.2c0-1.5,0.2-3.1,0.5-4.6
	c1.1-5.2,5.1-8.5,10.2-8.8c5.3-0.3,9.9,3.3,11.2,8.5c0.2,1,0.4,2,0.4,3c0,12,0,24-0.1,36c0,0.5-0.3,0.9-0.7,1.9
	C1199.6,604.2,1197.9,604.4,1195.5,604.6z"/>
<path class="st3" d="M1252.6,586.6c0,6.1,0,11.5,0,16.7c-5.2,1.7-11.8,1.8-21.2,0.7c-0.2-1.2-0.7-2.7-0.7-4.1
	c-0.1-10.7,0-21.5,0-32.2c0-1.3,0.1-2.6,0.2-3.8c0.8-4.9,4.2-8.4,9-9.1c4.9-0.8,9.9,2,11.6,6.8c0.8,2.1,1,4.5,1,6.7
	C1252.6,574.1,1252.6,580,1252.6,586.6z"/>
<path class="st3" d="M1302.3,603.9c-6.4,0.5-12.3,0.6-18.2,0.6c-0.7,0-1.4-0.5-2.3-0.8c-0.2-1.5-0.5-3-0.5-4.5c0-10.2,0-20.5,0-30.7
	c0-1.3,0-2.6,0.1-3.8c0.6-5.6,4.5-9.5,9.9-10c5.5-0.5,10.5,3.3,11.7,9c0.2,1,0.3,2,0.3,3c0,11.8,0,23.5-0.1,35.3
	C1303.2,602.5,1302.9,602.9,1302.3,603.9z"/>
<path class="st3" d="M1392.7,554.7c9,1.6,11.8,4.5,11.9,12.5c0.1,11.2,0,22.4,0,33.6c0,1-0.3,2-0.5,3.3c-6.9,1-13.6,0.7-20.7,0.2
	c-0.3-1.5-0.7-2.7-0.7-3.9c0-10.9,0.1-21.9-0.1-32.8C1382.6,560.7,1385.3,556.3,1392.7,554.7z"/>
<path class="st3" d="M1343.2,604.6c-4-0.1-7.3,0.3-10.7-0.5c-0.2-2-0.5-3.5-0.5-5c0-10.2,0-20.4,0-30.7c0-1.3,0-2.6,0.1-3.8
	c0.6-5.9,4.9-9.9,10.6-10.1c5.5-0.1,10.2,3.9,11.1,9.7c0.1,0.5,0.1,1,0.1,1.5c0,12.5,0,25,0,37.4
	C1350.6,605.5,1347.2,604.3,1343.2,604.6z"/>
<path class="st3" d="M485.2,556.3c2.2-0.7,3.9-1.6,5.6-1.6c5.7-0.1,10.2,4.1,10.8,9.7c0.2,1.5,0.1,3.1,0.1,4.6c0,9.7,0,19.3,0,29
	c0,1.8-0.2,3.5-0.3,5.4c-3.4,2.1-7,1-10.4,1.1c-3.5,0.1-7.1,0.7-10.7-0.7c-0.2-1.3-0.4-2.6-0.4-3.8c0-10.9,0.1-21.9-0.1-32.8
	C479.8,562.8,481,559.2,485.2,556.3z"/>
<path class="st3" d="M20.9,602.8c-0.2-11.9-0.3-23.2-0.3-34.4c0-1.3,0-2.6,0.1-3.8c0.6-5.7,5.2-9.9,10.8-9.9
	c5.6,0,10.2,4.2,10.8,9.8c0.2,1.5,0.1,3.1,0.1,4.6c0,9.7,0,19.4,0,29.1c0,1.8-0.2,3.5-0.3,5.7c-1.8,0.2-3.6,0.8-5.2,0.6
	C31.7,604.2,26.3,605.8,20.9,602.8z"/>
<path class="st3" d="M82.2,554.6c1.6,0.2,2.6,0.3,3.6,0.7c4.8,1.8,7.4,5.2,7.4,10.4c0,5.1,0,10.2,0,15.3c0,5.9,0,11.7,0,17.6
	c0,1.7-0.3,3.5-0.5,5.5c-7,0.9-13.8,0.7-20.9,0.1c-0.2-1.8-0.5-3.3-0.5-4.7c0-10.7-0.1-21.4,0-32.1
	C71.5,559.5,73.4,557.1,82.2,554.6z"/>
<path class="st3" d="M289.5,604.6c-4.3,0-7.8-0.1-11.8-0.1c-0.3-1.8-0.6-3.3-0.6-4.7c0-10.7-0.1-21.5,0-32.2c0-2.3,0.2-4.7,1.1-6.7
	c1.8-4.3,6.9-6.8,11.3-6.1c4.7,0.8,8.4,4.4,9.2,9.1c0.2,1,0.2,2,0.2,3.1c0,11.5,0,23,0,34.5c0,0.7-0.3,1.5-0.4,2.3
	C295.8,605.3,292.9,604.3,289.5,604.6z"/>
<path class="st3" d="M349.6,573c0,10.7,0,20.6,0,30.5c-3.9,2-7.5,0.9-11,1.1c-3.3,0.2-6.6-0.1-10.2-0.1c-0.3-1.6-0.6-2.8-0.6-4
	c0-11-0.1-22,0-33c0-2,0.1-4.2,0.8-6c1.5-4.2,6.5-7.2,11-6.8c5,0.4,9.3,4.3,9.9,9.2C349.7,566.6,349.5,569.4,349.6,573z"/>
<path class="st3" d="M378.4,594.1c0-9.9,0-19.1,0-28.3c0-5.2,2.5-8.7,7.4-10.5c6-2.2,12.9,1.6,14.2,7.9c0.3,1.2,0.3,2.5,0.3,3.8
	c0,11.2,0,22.5,0,33.7c0,1-0.3,2-0.5,3.3c-6.9,1-13.6,0.7-20.5,0.2C378,601,378.6,597.9,378.4,594.1z"/>
<path class="st3" d="M429.2,583.5c0-5.4,0-10,0-14.6c0-1.5,0-3.1,0.1-4.6c0.6-5.6,5.4-9.9,10.9-9.8c6.1,0.1,10.8,5.4,10.7,10
	c0,1.5,0.1,3.1,0.1,4.6c0,9.7,0,19.4,0,29.1c0,1.8-0.2,3.5-0.3,5.2c-5.4,1.4-12.8,1.5-20.9,0.3c-1.1-3-0.5-6.3-0.6-9.6
	C429.1,590.9,429.2,587.6,429.2,583.5z"/>
<path class="st3" d="M248.2,570.1c0,11.2-0.1,21.7-0.1,32.1c0,0.5-0.4,0.9-0.7,1.8c-6.6,1.2-13.3,0.3-20,0.4c-0.5-1.3-0.9-2-0.9-2.7
	c-0.1-12,0-24-0.1-36c0-3.6,1.3-6.5,4.1-8.7c6.4-5.1,15.7-1.8,17.4,6.3C248.2,565.3,248.1,567.4,248.2,570.1z"/>
<path class="st3" d="M916.1,550c-3.4-1.2-6.4-1.7-9.3-3.7c6.6-1,57.3-1.2,65.5-0.2c1.4,7.2,0.4,14.5,0.6,22.2
	c-1.7-0.1-2.9,0.1-4-0.3C951.5,562,934.1,556.1,916.1,550z"/>
<path class="st3" d="M702.5,545.4c4.4,0,8.2,0,12.2,0c-0.6,0.9-0.8,1.4-1.2,1.6c-17.8,7-35.6,14.1-53.4,21c-0.4,0.2-1-0.1-1.8-0.3
	c-0.8-7-0.3-14.1-0.3-21.6c2.1-0.3,3.7-0.7,5.4-0.7C676.2,545.4,689,545.4,702.5,545.4z"/>
<path class="st0" d="M1455.8,533.4c-7.1,5.6-13.2,5.4-18.1-0.4c-3-3.5-3.3-9.3-0.9-13.6c2.5-4.3,7.6-6.7,12.3-5.6
	c5.2,1.2,9,4.7,9.4,9.6c0.2,2.5-0.4,5-1.1,8.1C1456.5,532.5,1456.2,532.8,1455.8,533.4 M1447,523.7c-1.3,0.4-2.4,1-1.4,2.5
	c0.3,0.4,1.4,0.7,1.9,0.6C1449.2,526.2,1449.1,525.1,1447,523.7z"/>
<path class="st3" d="M153.3,560.1c0-5-0.1-9.4,0-13.7c0-1.8,0.2-3.6,0.6-5.3c0.9-3.4,3-5.3,5.6-5.4c2.7-0.1,4.8,1.7,5.9,5.1
	c0.2,0.5,0.3,1,0.4,1.5c0.7,7.8,0.2,15.7,0.3,23.6c-4.5,1-8.2,0.9-12.3,0.2C153.7,564.2,153.5,562.5,153.3,560.1z"/>
<path class="st3" d="M1475.3,537.9c0.8,1.4,1.5,2.3,1.6,3.3c0.7,8.1,0.5,16.3,0.2,24.3c-5.8,1.3-5.8,1.3-11.9,0.1
	c-0.8-3.4-0.3-6.9-0.4-10.5c-0.1-3.3-0.1-6.7,0-10c0.1-1.8,0.3-3.7,1-5.2c0.7-1.5,2-3,3.5-3.8
	C1471.2,535.1,1473.3,535.8,1475.3,537.9z"/>
<path class="st3" d="M1472.3,576.1c5.8,0,10.9,0.1,16.4,0.2c0.1,2.1,0.2,3.7,0.2,5.3c-6,1.1-23.9,1.4-34.6,0.6
	c-1.1-2.6-1.1-2.6,0-5.9C1459.9,575.9,1465.7,576.1,1472.3,576.1z"/>
<path class="st3" d="M177.4,580.6c-1.1,1.1-2,1.7-2.9,1.7c-9.9,0.1-19.9,0-29.8,0c-0.7,0-1.4-0.4-2.4-0.7c0-1.5,0-2.9,0-4.7
	c5.7-1.7,11.6-0.6,17.3-0.8c5.6-0.2,11.2,0,17.2,0C177.1,577.6,177.3,578.7,177.4,580.6z"/>
<path class="st3" d="M1454.1,623.4c0-5.1,0-9.4,0-13.7c0-1.3,0-2.6,0.5-3.7c0.3-0.7,1.4-1.3,2.3-1.5c0.4-0.1,1.4,0.6,1.6,1.2
	c0.5,1.4,0.9,2.9,1,4.4c0.1,6.9,0.1,13.7,0,20.6c0,0.8-0.1,1.5-0.2,2.3c-0.3,1.7-1.8,2.9-3.2,2.5c-1.5-0.4-1.9-1.5-1.9-2.9
	C1454.1,629.7,1454.1,626.9,1454.1,623.4z"/>
<path class="st3" d="M142.6,623.3c0-4.8-0.1-8.9,0.1-12.9c0.1-1.7,0.6-3.5,1.1-5.1c0.2-0.5,1.2-1,1.8-0.9c0.6,0.1,1.4,0.7,1.7,1.2
	c0.4,0.9,0.7,1.9,0.7,2.9c0,7.9,0,15.8,0,23.6c0,0.5,0.1,1.2-0.2,1.5c-0.6,0.7-1.4,1.6-2.2,1.6c-0.8,0-1.9-0.7-2.3-1.4
	c-0.5-0.8-0.6-1.9-0.6-2.9C142.5,628.6,142.6,626.3,142.6,623.3z"/>
<path class="st3" d="M1468.9,620.4c0.1-5.3,0.1-9.9,0.3-14.4c0-0.5,0.9-1.5,1.4-1.5c0.9,0.1,2,0.5,2.4,1.2c0.5,0.8,0.6,1.9,0.6,2.9
	c0,7.6,0,15.2,0,22.9c0,0.3,0,0.5,0,0.8c-0.2,2.2-1.1,3.2-2.5,3c-1.6-0.2-2-1.4-2.1-2.7c-0.1-2-0.1-4.1-0.1-6.1
	C1468.9,624.7,1468.9,622.9,1468.9,620.4z"/>
<path class="st3" d="M176.3,629.2c-0.2,2.2-0.3,3.7-0.7,5.1c-0.1,0.5-1.2,1-1.8,0.9c-0.6,0-1.5-0.6-1.7-1.1c-0.4-0.9-0.5-2-0.5-3
	c0-7.4-0.1-14.8,0-22.1c0-1.2,0.4-2.5,0.8-3.6c0.2-0.5,1.2-1,1.8-1c0.6,0,1.5,0.7,1.6,1.2c0.3,1.5,0.4,3,0.4,4.5
	C176.3,616.3,176.3,622.4,176.3,629.2z"/>
<path class="st3" d="M1483.8,605.3c1.8-1.4,2.8-0.7,3.5,0.4c0.4,0.6,0.4,1.5,0.4,2.2c0,7.9,0,15.8,0,23.7c0,0.8,0.1,1.7-0.3,2.2
	c-0.6,0.7-1.5,1.2-2.4,1.3c-0.5,0.1-1.2-0.7-1.7-1.2c-0.3-0.3-0.3-1-0.3-1.5C1483.2,623.6,1483.3,614.7,1483.8,605.3z"/>
<path class="st3" d="M162.1,616c0,5.5,0,10.3,0,15.2c0,1-0.1,2.1-0.5,2.9c-0.2,0.5-1.1,1.1-1.7,1.1c-0.6,0-1.5-0.5-1.8-1
	c-0.4-0.9-0.6-1.9-0.6-2.9c0-7.6,0-15.2,0-22.8c0-0.8-0.1-1.6,0.3-2.2c0.5-0.8,1.3-1.9,2-1.9c0.7,0,1.9,1.1,2,1.8
	C162,609.2,162,612.3,162.1,616z"/>
<path class="st3" d="M1459.3,592.4c10.1,0,19.4,0,28.9,0.1c-0.5,2.9-2.4,1.6-3.6,1.9c-3.9,1-7.7,2.2-11.8,0.2c-1-0.5-2.5-0.2-3.8,0
	c-2.7,0.5-5,2.2-8.1,0.8c-2.2-1-4.7-1-7.1-2.4C1455.5,592.8,1457,592.6,1459.3,592.4z"/>
<path class="st5" d="M1618.4,558c0.6-0.6,1.1-0.6,2.1-0.7c0.5,13,0.6,26,0.7,39c0,1.9-0.2,3.8-1.1,5.7c-0.1-2-0.2-4-0.2-6
	c0-9.4,0.1-18.9-0.1-28.3C1619.7,564.6,1618.9,561.6,1618.4,558z"/>
<path class="st3" d="M151.6,595.8c-3.3-0.8-5.9-1.5-8.5-2.1c-0.1-0.3-0.2-0.6-0.1-0.7c0.2-0.2,0.5-0.3,0.7-0.3
	c8.9-0.1,17.9-0.2,26.8-0.3c2,0,4,0.2,6.5,0.3c-2.6,1.5-10,3.6-11.3,2.9C161,593.4,156.6,594.6,151.6,595.8z"/>
<path class="st5" d="M10.2,562.6c0.1-0.7,0.5-0.8,0.7-0.8c0.3,12.9,0.4,25.9,0.4,38.8c0,0.4-0.4,0.9-0.6,1.3
	c-0.2-0.5-0.6-0.9-0.6-1.4C10.1,588.2,10.1,575.8,10.2,562.6z"/>
<path class="st5" d="M1614.7,508.7c-0.6,0.5-1.7,0.9-3.3,1.3C1611.4,508.3,1612.8,508.4,1614.7,508.7z"/>
<path class="st6" d="M1484.6,532.8c-0.6-0.6-1.2-1.3-1.8-2.3c-0.1-0.4,0.2-0.6,0.7-0.5C1484.1,531.1,1484.3,532,1484.6,532.8
	C1484.6,532.9,1484.6,532.8,1484.6,532.8z"/>
<path class="st7" d="M148.4,529.9c-0.1,0.9-0.6,1.7-1.3,2.7c-0.3,0.3-0.3,0.3-0.4-0.2c0.2-1.4,0.5-2.2,0.9-3.1
	C147.6,529.3,148.1,529.7,148.4,529.9z"/>
<path class="st5" d="M1620.7,509.6c-0.6,0.2-1.3,0-2.3-0.5C1618.9,509,1619.8,509.1,1620.7,509.6z"/>
<path class="st6" d="M1486.1,534.4c-0.5-0.2-0.9-0.5-1.5-1.1c-0.1-0.4-0.1-0.4,0.3-0.3C1485.6,533.5,1485.8,533.9,1486.1,534.4
	C1486.1,534.4,1486.1,534.4,1486.1,534.4z"/>
<path class="st7" d="M174.4,534.4c-0.4-0.3-0.9-0.5-1.4-1.2c-0.1-0.4-0.1-0.3,0.2-0.3C173.9,533.4,174.1,533.9,174.4,534.4
	C174.4,534.4,174.4,534.4,174.4,534.4z"/>
<path class="st7" d="M146.7,532.8c-0.3,0.4-0.5,0.9-1.2,1.4c-0.4,0.1-0.4,0.1-0.3-0.3C145.8,533.4,146.3,533.1,146.7,532.8
	C146.8,532.9,146.7,532.9,146.7,532.8z"/>
<path class="st0" d="M1077,623.9c-22.2,0-43.7,0-65.2,0c-9.5,0-10-0.5-10-9.9c0-40.7,0-81.3,0-122c0-3.8,0-7.8,0.7-11.5
	c3.6-17.1,17.7-31,38.1-32c18.7-0.9,35.7,11,40.9,28.5c1.5,5.2,1.9,10.5,1.9,15.9c-0.1,37.8,0,75.7,0,113.5c0,3.8,0.1,7.7-0.1,11.5
	C1083.3,621.6,1081.5,623.8,1077,623.9 M1011.4,576.6c0,10.8,0,21.5,0,32.3c0,1.7,0.5,3.4,0.9,5.4c19.6,0,38.8,0,57.9,0
	c1,0,1.9-0.4,3.3-0.7c0.2-2.4,0.4-4.6,0.4-6.9c0-37.4,0.1-74.7,0-112.1c0-4.3-0.3-8.8-1.3-13c-1.7-7.5-5.8-13.6-12.2-18
	c-6-4-12.6-5.2-19.7-5.1c-13.6,0.1-24.1,9.9-27.7,20.6c-1.3,4-1.6,8-1.6,12.1C1011.4,519.3,1011.4,547.2,1011.4,576.6z"/>
<path class="st0" d="M547.5,618.3c0-42.9,0-85.1-0.1-127.3c0-8.1,1.5-15.8,5.7-22.7c9.5-15.9,28.1-23.2,46.5-18.2
	c21.1,5.8,29.6,24.8,29.5,38.6c-0.2,28.1-0.1,56.3-0.1,84.4c0,13.3,0,26.6,0,39.9c0,1.8,0.1,3.6-0.1,5.4c-0.3,3.7-1.6,5.1-5.1,5.5
	c-1.3,0.1-2.6,0.1-3.8,0.1c-21.2,0-42.4,0-63.7,0c-1.3,0-2.6,0-3.8-0.1C549.6,623.6,547.9,622,547.5,618.3 M557,569
	c0,13,0,26.1,0,39.1c0,2-0.5,4.1,1.3,5.9c0.7,0.1,1.4,0.4,2.1,0.4c18.4,0,36.8,0.1,55.2,0c1.2,0,2.3-0.6,3.9-1c0-3.1,0-5.9,0-8.7
	c0-33,0-65.9,0-98.9c0-5.4,0-10.7,0-16.1c0-5.5-1.3-10.7-4-15.4c-5.9-10.4-15-15.3-27.1-15.7c-15.7-0.5-28.7,11-30.9,25.3
	c-0.5,3-0.6,6.1-0.6,9.1C557,517.8,557,542.6,557,569z"/>
<path class="st0" d="M193,471.7c0,8.9,0,17.1,0,25.3c0,1.8,0,3.6-0.2,5.4c-0.3,2.3-1.7,3.7-4,4c-1.8,0.2-3.6,0.3-5.3,0.3
	c-15.9,0-31.7,0-47.6,0c-0.5,0-1,0-1.5,0c-6.8-0.2-7.9-1.2-8-8.1c-0.1-9.7,0-19.4,0-29.1c0-1.3,0-2.6,0.2-3.8
	c0.6-4.8,3.3-7.9,7.9-9.3c1.7-0.5,3.5-0.6,5.4-0.9c1-1.4,1.9-3,3-4.4c3.3-4.1,7.4-6.2,12.8-4.5c2.5,0.8,4.9,0.8,7.5,0.2
	c7.2-1.5,10.6,0.1,14.6,6.5c0.4,0.6,0.9,1.2,1.5,2.1c1.1,0.2,2.3,0.3,3.5,0.6c6.7,1.3,9.7,4.5,10.2,11.3
	C193.1,468.4,193,469.7,193,471.7 M167.4,496.6c1.3-0.5,2-1.5,2-2.9c0-11.5,0.1-22.9,0-34.4c0-0.7-0.2-1.6-0.6-2.2
	c-0.4-0.5-1.1-1.1-1.8-1.1c-0.6,0-1.6,0.4-1.9,0.9c-0.5,0.9-0.6,1.9-0.6,2.9c0,11.2,0,22.4,0,33.6
	C164.5,494.9,164.9,496,167.4,496.6 M150,463.3c0,4.3,0,8.7,0,13c0,5.9,0,11.7,0.1,17.6c0,2.3,1,2.6,4.2,1.8
	c1.1-10.5,0.8-34.4-0.7-39.9c-1.1,0.6-2.6,0.9-2.9,1.7C150,458.8,150.2,460.4,150,463.3 M183.4,494.8c0.1-8.1,0.1-16.3,0.1-24.4
	c0-1.2-0.1-2.5-0.5-3.7c-0.2-0.6-1.1-1.2-1.7-1.2c-0.6,0-1.5,0.5-1.8,1.1c-0.4,0.9-0.6,1.9-0.6,2.9c0,7.9,0,15.8,0,23.7
	c0,1,0.4,1.9,0.6,3.2C180.8,496.2,181.7,496.1,183.4,494.8 M140.6,476.9c0-1.5,0-3.1,0-4.6c-0.1-1.8,0-3.6-0.4-5.3
	c-0.2-0.7-1.4-1.3-2.2-1.5c-0.5-0.1-1.2,0.7-1.7,1.3c-0.3,0.3-0.4,1-0.4,1.4c0,8.7,0,17.3,0.1,26c0,1.8,0.7,2,4.2,1.5
	C141.1,490.1,140.4,484.2,140.6,476.9z"/>
<path class="st0" d="M142.3,411.2c-0.2-4.1,0.9-7.2,2.6-10.1c4-6.9,12-10.1,19.9-7.7c7.8,2.4,11.6,8.7,12.2,16.1
	c0.6,7.1-5,15.1-12.1,16.9c-7.2,1.9-15.4,0.8-20.3-8.2C143.6,416.2,143.1,413.9,142.3,411.2 M162.2,402.7c-2,0.2-4.1-0.2-5.8,0.6
	c-3.5,1.5-4.8,6.1-3.3,9.8c1.1,2.8,5.1,4.9,8.1,4.2c3.8-0.9,5.9-3.8,5.8-7.8C166.9,406.7,165.6,404.7,162.2,402.7z"/>
<path class="st0" d="M146.7,532.4c-0.4,0.7-0.9,0.9-1.4,1.6c-1.9,1.2-3.7,2.2-5.6,2.8c-6.9,2.4-14.4-1.9-15.8-9
	c-1.3-6.6,3.5-13.4,10.4-14.4c4.8-0.7,10.5,2.5,12.2,7.3c0.8,2.3,0.8,4.9,1.1,8C147.3,530.2,146.9,531.1,146.7,532.4 M134.5,527.4
	c1.8,0.8,3,0.1,2.9-1.8c0-0.7-1.2-1.8-1.8-1.8C133.7,523.7,133,524.8,134.5,527.4z"/>
<path class="st0" d="M174.9,534.5c-0.8-0.6-1.1-1.1-1.7-1.6c-0.7-2-1.2-4-1.4-6c-0.8-7,5.5-13.8,12.5-13.5c4.6,0.2,9.1,3.8,10.8,8.5
	c1.6,4.5,0.3,9.4-3.4,12.5c-3.6,3.1-7.7,3.8-12.2,2.3C178.1,536.2,176.8,535.3,174.9,534.5 M184,523.6c-0.6,0.4-1.7,0.7-1.7,1.1
	c-0.1,0.8,0,2.1,0.5,2.6c1.2,1,2.4,0.3,2.9-1C186,525.7,185.3,524.7,184,523.6z"/>
<path class="st0" d="M1447.7,455.8c2.9,0.1,4.4-0.9,5.4-3c1.3-2.9,3.4-5.1,6.5-6.1c2.5-0.8,4.9-1.4,7.5-0.3c2.4,1,4.9,0.9,7.5,0.1
	c5.9-1.8,10.5,0.3,13.9,5.2c0.7,1,1.3,2.2,2.1,3.5c1.5,0.2,3,0.4,4.4,0.7c5.7,1.2,9.4,5.3,9.5,11.3c0.2,11,0.2,22,0,33
	c0,4.5-1.6,6-5.9,6.4c-1.3,0.1-2.6,0.1-3.8,0.1c-15.8,0-31.7,0-47.5,0c-1,0-2,0-3.1,0c-4.9-0.3-6.7-2.1-6.9-7.2c-0.1-1,0-2,0-3.1
	c0-8.2,0-16.4,0-24.5c0-1,0-2,0-3.1C1437.7,462.2,1440.3,457.4,1447.7,455.8 M1475.7,491.2c0.1,1.3-0.1,2.6,0.3,3.8
	c0.3,0.7,1.5,1.5,2.3,1.5c0.7,0,1.8-0.9,2.1-1.6c0.4-0.8,0.2-2,0.2-3c0-9.9,0.1-19.8,0.1-29.8c0-1.5-0.1-3.1-0.5-4.5
	c-0.2-0.7-1.4-1.6-2.1-1.5c-0.7,0.1-1.9,1-2,1.8c-0.4,1.7-0.3,3.5-0.3,5.3C1475.7,472.1,1475.7,481,1475.7,491.2 M1466.2,464.8
	c-0.2-2.5-0.3-5.1-0.6-7.6c-0.1-0.5-1.1-1.1-1.7-1.1c-0.6,0-1.6,0.6-1.8,1.1c-0.4,1.2-0.6,2.5-0.6,3.7c0,10.5,0,21,0.1,31.4
	c0,1.2,0.4,2.4,0.6,3.8c1.2,0,2.2,0,3,0c0.3-0.7,0.8-1.1,0.8-1.6C1466.1,485.1,1466.2,475.7,1466.2,464.8 M1452.1,475.5
	c0-1.5,0-3.1,0-4.6c0-1,0-2-0.2-3.1c-0.2-1.4-1-2.5-2.5-2.2c-0.7,0.1-1.3,1.2-1.9,2c-0.3,0.4-0.2,1-0.2,1.5
	c0.1,8.7,0.1,17.4,0.2,26.1c0,0.4,0.5,0.8,1,1.5c1-0.3,2.1-0.6,3.5-1C1452.1,489.2,1452.1,483.1,1452.1,475.5 M1495.1,493.3
	c0-7.4,0.1-14.7,0-22.1c0-1.5-0.2-3-0.7-4.4c-0.2-0.6-1.1-1.2-1.7-1.2c-0.6,0-1.4,0.5-1.8,1.1c-0.4,0.6-0.5,1.4-0.5,2.2
	c0,8.6,0,17.3,0.1,25.9c0,0.4,0.4,0.9,0.7,1.3C1492.9,496.7,1494.2,496.4,1495.1,493.3z"/>
<path class="st0" d="M1477,393.8c2.1,1.1,3.8,1.8,5.2,2.9c5.6,4.5,7.7,13.6,4.8,20.2c-3.2,7.3-11.3,11.4-19.6,9.9
	c-7-1.3-12.9-8.1-13.5-15.7c-0.5-7.5,4.2-15,11.2-17.4C1468.8,392.4,1472.6,392.6,1477,393.8 M1464.6,406.2
	c-0.4,1.2-1.1,2.3-1.2,3.5c0,3.6,2.8,6.9,6.1,7.6c2.7,0.6,6.4-1,7.9-3.4c1.5-2.4,1.3-6.4-0.4-8.6c-2.3-2.9-5.9-3.7-9.5-2
	C1466.8,403.8,1466.1,404.6,1464.6,406.2z"/>
<path class="st0" d="M1486.6,534.6c-0.8-0.6-1.1-1.1-1.7-1.6c-0.6-1-0.8-1.8-1.4-3c-0.3-2.3-0.6-4.4-0.2-6.3c1.1-4.8,4-8.1,8.7-9.7
	c4.3-1.4,8,0.1,11.2,2.9c4.3,3.8,5.1,8.7,2.6,13.8c-2.5,5.2-7.6,7.8-13.2,6.6C1490.8,536.8,1489,535.6,1486.6,534.6 M1496,527.6
	c0.3-0.6,1-1.4,0.9-1.9c-0.3-0.8-1-1.6-1.8-1.9c-0.4-0.2-1.8,0.3-1.8,0.7c-0.2,0.8,0.1,1.8,0.4,2.6
	C1493.8,527.4,1494.5,527.5,1496,527.6z"/>
<path class="st0" d="M603.6,379.3c-3.8-0.6-6.1-2.6-8.1-5c-4.2-5-4.5-11.8-0.6-16.9c4.2-5.6,9.3-7.5,16.9-5
	c5.4,1.8,9.3,8.3,8.9,13.9c-0.5,6.8-5.3,12.1-11.9,13.1C607.3,379.6,605.7,379.4,603.6,379.3 M602.2,363.7c-0.8,1.5-0.4,2.9,0.5,4.2
	c1.3,1.8,3.4,2.5,5.3,1.7c1.9-0.8,3-2.8,2.7-4.9c-0.3-2-1.9-3.8-4-3.7C605.4,361.1,604.1,362.2,602.2,363.7z"/>
<path class="st0" d="M557.7,358.8c3.1-5.4,7.4-7.6,13-7.4c7.2,0.2,13.1,5.8,13.7,13c0.5,6.7-4.5,13.6-10.7,14.8
	c-7.6,1.5-14.2-2-16.7-8.8C555.5,366.7,555.8,363,557.7,358.8 M574.3,363.8c-0.9-0.9-1.6-2.1-2.6-2.5c-2.2-0.9-4.7,0.2-5.6,2.3
	c-0.8,1.8-0.2,4.1,1.4,5.4c1.9,1.5,4.3,1.3,5.9-0.7C574.2,367.4,574.3,366,574.3,363.8z"/>
<path class="st0" d="M541,353.1c5.3,3.3,7.2,7.8,6.9,13.3c-0.3,6.1-3.8,11.1-9.4,12.5c-6.1,1.5-11.4,0.8-15.7-4.8
	c-3.8-4.9-4-11.6-0.5-16.4c3-4.2,6.9-6.8,12.3-6.2C536.6,351.7,538.5,352.4,541,353.1 M532.2,369.6c1.5,0.6,2.9,0.5,4.3-0.4
	c1.8-1.3,2.5-3.4,1.7-5.3c-0.7-1.8-2.1-2.8-4-2.9c-1.9-0.1-3.8,1.3-4.5,3.3C529,366.2,529.9,367.6,532.2,369.6z"/>
<path class="st0" d="M628.8,362.1c2.5-9.2,10.3-11.4,16-10.5c6.9,1,12,7.6,11.9,14.7c-0.1,5.5-6.1,13.1-13.4,13.3
	C634.2,379.9,626.7,372.1,628.8,362.1 M638.1,364.9c0.5,1.3,0.7,3,1.6,3.9c2,2,4.8,1.5,6.4-0.8c1.4-1.9,1.1-4.5-0.9-6
	c-0.8-0.6-1.8-0.9-2.7-1C640.6,360.9,639.3,362,638.1,364.9z"/>
<path class="st0" d="M1102.2,352.4c2,1.3,3.6,2.1,4.9,3.4c4.7,4.8,5.6,11.5,2,16.9c-4.3,6.4-8.5,7.9-16.6,6.4
	c-5.2-1-9.8-7.4-10-13.2c-0.2-7,5.4-13.6,12.4-14.3C1097,351.4,1099.3,351.9,1102.2,352.4 M1095.3,361.2c-0.8,0.9-2.1,1.7-2.5,2.7
	c-0.9,2.5,0.2,4.8,2.3,5.7c1.6,0.7,3.6,0.2,4.8-1.2c1.7-1.8,1.7-4.2-0.2-6.1C1099,361.6,1097.6,361.4,1095.3,361.2z"/>
<path class="st0" d="M1038.6,367.8c-3.3,9-7.6,11.9-15.4,11.8c-6.6-0.1-12.7-7.1-13-12.9c-0.5-7.1,4.6-13.8,11.6-15
	c7.8-1.3,14.2,2.6,16.4,10.3C1038.6,363.6,1038.5,365.4,1038.6,367.8 M1027.9,362.6c-1.3-1.4-2.9-2.1-4.8-1.4c-2,0.7-3.4,2.8-3,4.7
	c0.3,1.9,1.4,3.2,3.3,3.8c2,0.6,4.1-0.2,5-2.4C1028.7,366.3,1028.4,364.9,1027.9,362.6z"/>
<path class="st0" d="M1050.5,375.6c-3.3-3.7-4.2-7.6-3.8-11.8c0.7-7.4,6.3-12.3,14-12.3c7.4,0,13.3,5.4,14,12.5
	c1,11.3-8.8,18.5-19.9,14.5C1053.4,377.9,1052.2,376.8,1050.5,375.6 M1057,368.2c1.3,0.6,2.6,1.6,4,1.7c2.1,0.1,3.8-1.8,4.1-3.8
	c0.3-1.9-0.9-4-2.8-4.9c-1.8-0.8-4-0.2-5.3,1.6C1056,364.2,1055.9,365.6,1057,368.2z"/>
<path class="st0" d="M976.7,373.7c-2.4-3.7-2.6-7.2-2.2-10.8c0.6-6,6.4-11.7,14-11.4c7.1,0.3,13,5.2,13.8,11.8
	c0.7,6.2-1.3,11.1-6.7,14.3c-5,3-10.2,2.7-15.2-0.3C979.1,376.5,978.1,375.3,976.7,373.7 M984.1,367.2c1.1,0.9,2.1,2.2,3.4,2.6
	c2,0.6,4-0.7,4.9-2.6c0.9-1.8,0.2-4-1.5-5.4c-1.7-1.3-3.8-1.3-5.5,0.2C984.2,363,983.7,364.4,984.1,367.2z"/>
<path class="st0" d="M592.7,231.9c5.7,2.5,7.4,6.7,7.3,12c-0.1,16.3,0,32.6,0,49c0,0.8,0,1.5-0.1,2.3c-0.3,3.5-1.7,5.2-5.2,5.5
	c-4.3,0.3-8.7,0.3-13,0c-3.6-0.2-5-1.8-5.3-5.3c-0.1-1.3-0.1-2.5-0.1-3.8c0-15.3,0-30.6,0-45.9C576.6,234.2,580.6,230.7,592.7,231.9
	 M585.9,254.3c0,10.4,0,20.9,0,31.3c0,1.5,0.2,3,0.5,4.5c0.1,0.5,1.2,1,1.8,1c0.6,0,1.7-0.5,1.8-1c0.4-1.4,0.6-3,0.6-4.5
	c0-13,0-26,0-39c0-1.3,0-2.5-0.2-3.8c-0.1-1.4-1.5-2.6-2.6-2c-0.8,0.4-1.8,1.3-1.8,2C585.9,246.2,585.9,249.5,585.9,254.3z"/>
<path class="st0" d="M1052.5,235.9c1.9,3,2.1,5.8,2.1,8.6c0,16.1,0,32.2,0,48.2c0,1,0,2-0.1,3.1c-0.4,3.1-1.8,4.8-4.8,5
	c-4.6,0.2-9.2,0.2-13.8,0c-3.2-0.1-5.1-2.1-5.6-5.3c-0.2-1.5-0.1-3.1-0.1-4.6c0-14.5,0-29.1,0-43.6c0-2.3,0.1-4.6,0.7-6.8
	c2.1-8.6,9.9-12.1,17.7-8C1049.9,233.2,1050.9,234.4,1052.5,235.9 M1045.1,269.4c0-8.1,0-16.3,0-24.4c0-1.8,0.1-3.7-2.2-4.3
	c-1.4-0.4-2.5,1.2-2.5,3.8c0,14.5,0,29,0,43.5c0,0.9,0.5,1.9,0.7,2.8c2.3,0.5,3.9,0,3.9-2.3C1045.1,282.6,1045,276.8,1045.1,269.4z"
	/>
<path class="st8" d="M1447.5,523.8c1.5,1.3,1.7,2.4,0,2.9c-0.5,0.2-1.6-0.1-1.9-0.6C1444.6,524.7,1445.7,524.1,1447.5,523.8z"/>
<path class="st4" d="M1011.4,575.9c0-28.7,0-56.6,0-84.5c0-4.1,0.3-8.1,1.6-12.1c3.6-10.7,14.1-20.5,27.7-20.6
	c7.1-0.1,13.7,1.1,19.7,5.1c6.5,4.4,10.5,10.5,12.2,18c1,4.2,1.3,8.6,1.3,13c0.1,37.4,0.1,74.7,0,112.1c0,2.2-0.3,4.5-0.4,6.9
	c-1.4,0.3-2.4,0.7-3.3,0.7c-19.2,0-38.3,0-57.9,0c-0.3-2.1-0.8-3.8-0.9-5.4C1011.4,598.1,1011.4,587.4,1011.4,575.9 M1050.6,468.2
	c-3.4-2.9-7.3-3.7-11.5-2.6c-4.6,1.1-7.2,4.6-8.7,8.6c-1.9,0.3-3.5,0.3-4.9,0.7c-5.7,1.6-8.9,5.6-9.3,11.6c-0.1,1,0,2,0,3.1
	c0,12,0,24,0,36c0,1.5,0,3.1,0.1,4.6c0.2,2.6,1.7,4.2,4.2,4.8c1.5,0.4,3,0.6,4.5,0.6c12,0,24,0.1,36,0c6.3-0.1,7.6-1.5,7.7-7.7
	c0.1-7.7,0-15.3,0-23c0-6.1-0.2-12.3,0-18.4c0.2-5.7-3.7-10.1-9.3-11.6c-1.5-0.4-3-0.5-4.5-0.7
	C1053.7,472.4,1052.6,470.7,1050.6,468.2z"/>
<path class="st4" d="M557,568.2c0-25.6,0-50.3,0-75.1c0-3.1,0.2-6.1,0.6-9.1c2.2-14.3,15.2-25.8,30.9-25.3
	c12.1,0.4,21.1,5.3,27.1,15.7c2.7,4.7,4,9.9,4,15.4c0,5.4,0,10.7,0,16.1c0,33,0,65.9,0,98.9c0,2.8,0,5.6,0,8.7c-1.6,0.4-2.8,1-3.9,1
	c-18.4,0-36.8,0-55.2,0c-0.7,0-1.5-0.3-2.1-0.4c-1.8-1.7-1.3-3.9-1.3-5.9C557,595,557,582,557,568.2 M561.7,525.5c0,0.5,0,1,0,1.5
	c0.4,6.7,1.7,8.4,8.1,8.5c12.3,0.2,24.6,0.2,36.8,0c6.5-0.1,8.2-1.9,8.4-8.2c0-0.8,0-1.5,0-2.3c0-11.3,0-22.5,0-33.8
	c0-1.8,0.2-3.6-0.2-5.4c-0.9-4.8-3.2-10.2-10.8-11.3c-1.2-0.2-2.5-0.4-3.7-0.6c-2.3-5.2-5.6-8.7-11.6-8.9
	c-6.6-0.2-10.3,3.6-12.5,8.8c-1,0.3-1.5,0.6-2,0.6c-7.6,0-12.8,5.6-12.6,14.3c0,1.3,0,2.6,0,3.8C561.7,503,561.7,513.5,561.7,525.5z
	"/>
<path class="st3" d="M166.8,496.6c-1.9-0.6-2.3-1.7-2.3-3.1c0-11.2,0-22.4,0-33.6c0-1,0.2-2.1,0.6-2.9c0.3-0.5,1.2-0.9,1.9-0.9
	c0.6,0,1.4,0.6,1.8,1.1c0.4,0.6,0.6,1.4,0.6,2.2c0,11.5,0,22.9,0,34.4C169.4,495.1,168.7,496.1,166.8,496.6z"/>
<path class="st3" d="M150,462.6c0.2-2.2,0-3.9,0.6-5.2c0.4-0.8,1.9-1.1,2.9-1.7c1.4,5.5,1.8,29.4,0.7,39.9c-3.2,0.9-4.1,0.5-4.2-1.8
	c-0.1-5.9-0.1-11.7-0.1-17.6C150,472,150,467.7,150,462.6z"/>
<path class="st3" d="M183.1,495.4c-1.3,0.7-2.3,0.8-3.5,0.9c-0.3-1.2-0.6-2.2-0.6-3.2c-0.1-7.9-0.1-15.8,0-23.7c0-1,0.2-2,0.6-2.9
	c0.3-0.5,1.2-1.1,1.8-1.1c0.6,0,1.5,0.6,1.7,1.2c0.4,1.2,0.5,2.5,0.5,3.7C183.6,478.5,183.5,486.7,183.1,495.4z"/>
<path class="st3" d="M140.6,477.7c-0.2,6.5,0.5,12.4-0.5,18.1c-3.4,0.5-4.1,0.3-4.2-1.5c-0.1-8.7-0.1-17.3-0.1-26
	c0-0.5,0.1-1.1,0.4-1.4c0.5-0.5,1.2-1.4,1.7-1.3c0.8,0.2,2.1,0.8,2.2,1.5c0.4,1.7,0.3,3.5,0.4,5.3
	C140.6,473.9,140.6,475.4,140.6,477.7z"/>
<path class="st4" d="M162.7,403c2.9,1.7,4.1,3.7,4.2,6.5c0.1,4-2,6.8-5.8,7.8c-3,0.7-7-1.3-8.1-4.2c-1.5-3.7-0.2-8.3,3.3-9.8
	C158,402.6,160.2,402.9,162.7,403z"/>
<path class="st5" d="M134.1,527c-1.2-2.2-0.4-3.3,1.5-3.3c0.7,0,1.8,1.2,1.8,1.8C137.5,527.4,136.4,528.2,134.1,527z"/>
<path class="st5" d="M184.6,523.7c0.8,1,1.4,2,1.2,2.6c-0.5,1.2-1.7,2-2.9,1c-0.6-0.5-0.7-1.8-0.5-2.6
	C182.4,524.3,183.4,524,184.6,523.7z"/>
<path class="st3" d="M1475.7,490.6c0-9.6,0-18.5,0-27.4c0-1.8,0-3.6,0.3-5.3c0.2-0.7,1.3-1.7,2-1.8c0.7-0.1,1.9,0.8,2.1,1.5
	c0.5,1.4,0.5,3,0.5,4.5c0,9.9,0,19.8-0.1,29.8c0,1,0.2,2.2-0.2,3c-0.4,0.8-1.4,1.6-2.1,1.6c-0.8,0-2-0.8-2.3-1.5
	C1475.6,493.9,1475.8,492.5,1475.7,490.6z"/>
<path class="st3" d="M1466.2,465.5c-0.1,10.2-0.1,19.7-0.2,29.1c0,0.5-0.4,0.9-0.8,1.6c-0.9,0-1.8,0-3,0c-0.2-1.4-0.6-2.6-0.6-3.8
	c-0.1-10.5-0.1-21-0.1-31.4c0-1.2,0.2-2.5,0.6-3.7c0.2-0.5,1.2-1.1,1.8-1.1c0.6,0,1.7,0.7,1.7,1.1
	C1466,459.7,1466,462.2,1466.2,465.5z"/>
<path class="st3" d="M1452.1,476.2c0,6.9,0,13,0,19.4c-1.3,0.4-2.5,0.7-3.5,1c-0.5-0.7-1-1.1-1-1.5c-0.1-8.7-0.2-17.4-0.2-26.1
	c0-0.5-0.1-1.1,0.2-1.5c0.5-0.8,1.1-1.8,1.9-2c1.4-0.3,2.3,0.8,2.5,2.2c0.1,1,0.2,2,0.2,3.1C1452.1,472.4,1452.1,474,1452.1,476.2z"
	/>
<path class="st3" d="M1495.1,494c-0.9,2.4-2.2,2.8-3.8,2c-0.2-0.4-0.7-0.9-0.7-1.3c-0.1-8.6-0.1-17.3-0.1-25.9
	c0-0.7,0.2-1.6,0.5-2.2c0.4-0.5,1.2-1.1,1.8-1.1c0.6,0,1.6,0.6,1.7,1.2c0.4,1.4,0.7,3,0.7,4.4C1495.2,478.5,1495.1,485.9,1495.1,494
	z"/>
<path class="st4" d="M1465,405.7c1.1-1.1,1.8-2,2.7-2.4c3.5-1.7,7.2-0.8,9.5,2c1.7,2.1,1.9,6.2,0.4,8.6c-1.5,2.4-5.2,4-7.9,3.4
	c-3.3-0.8-6.1-4.1-6.1-7.6C1463.5,408.5,1464.2,407.4,1465,405.7z"/>
<path class="st5" d="M1495.5,527.7c-1-0.1-1.6-0.3-1.8-0.6c-0.3-0.8-0.6-1.8-0.4-2.6c0.1-0.4,1.4-0.9,1.8-0.7
	c0.8,0.4,1.5,1.1,1.8,1.9C1497.1,526.1,1496.3,526.9,1495.5,527.7z"/>
<path class="st3" d="M602.5,363.2c1.6-1.1,2.9-2.1,4.2-2.2c2.1-0.1,3.7,1.7,4,3.7c0.3,2.1-0.8,4.1-2.7,4.9c-1.8,0.8-3.9,0.2-5.3-1.7
	C601.8,366.7,601.4,365.2,602.5,363.2z"/>
<path class="st3" d="M574.5,364.3c-0.2,1.7-0.3,3-1,3.9c-1.6,2-4,2.2-5.9,0.7c-1.6-1.2-2.2-3.5-1.4-5.4c0.9-2.1,3.4-3.3,5.6-2.3
	C572.8,361.7,573.5,362.9,574.5,364.3z"/>
<path class="st3" d="M531.7,369.3c-1.8-1.6-2.7-3.1-2-5c0.7-2.1,2.5-3.4,4.5-3.3c1.9,0.1,3.3,1.2,4,2.9c0.8,1.9,0.1,4-1.7,5.3
	C535.2,370.1,533.7,370.2,531.7,369.3z"/>
<path class="st3" d="M638.3,364.3c1-2.2,2.3-3.4,4.3-3.3c0.9,0.1,2,0.4,2.7,1c2,1.5,2.3,4,0.9,6c-1.7,2.3-4.4,2.8-6.4,0.8
	C638.8,367.8,638.6,366.2,638.3,364.3z"/>
<path class="st3" d="M1095.8,361.1c1.7,0.3,3.1,0.5,3.9,1.3c1.9,1.8,1.9,4.2,0.2,6.1c-1.2,1.4-3.2,1.9-4.8,1.2
	c-2.1-0.9-3.3-3.2-2.3-5.7C1093.2,362.9,1094.4,362.1,1095.8,361.1z"/>
<path class="st3" d="M1028.2,363.2c0.3,1.8,0.6,3.1,0.1,4.2c-0.9,2.1-3,3-5,2.4c-1.9-0.6-2.9-2-3.3-3.8c-0.3-1.9,1-4,3-4.7
	C1025,360.5,1026.5,361.3,1028.2,363.2z"/>
<path class="st3" d="M1056.7,367.7c-0.8-2-0.8-3.5,0.2-4.8c1.4-1.8,3.5-2.4,5.3-1.6c1.9,0.8,3.1,3,2.8,4.9c-0.3,2-2.1,3.8-4.1,3.8
	C1059.6,369.8,1058.3,368.8,1056.7,367.7z"/>
<path class="st3" d="M984,366.6c-0.3-2.2,0.2-3.6,1.5-4.6c1.8-1.4,3.8-1.5,5.5-0.2c1.7,1.3,2.3,3.6,1.5,5.4
	c-0.9,1.9-2.9,3.2-4.9,2.6C986.3,369.4,985.3,368.1,984,366.6z"/>
<path class="st3" d="M585.9,253.5c0-4,0-7.4,0.2-10.7c0.1-0.7,1.1-1.7,1.8-2c1-0.5,2.4,0.7,2.6,2c0.1,1.3,0.2,2.5,0.2,3.8
	c0,13,0,26,0,39c0,1.5-0.2,3-0.6,4.5c-0.1,0.5-1.2,1-1.8,1c-0.6,0-1.7-0.5-1.8-1c-0.4-1.4-0.5-3-0.5-4.5
	C585.9,275.1,585.9,264.7,585.9,253.5z"/>
<path class="st3" d="M1045.1,270.2c0,6.6,0,12.5-0.1,18.3c0,2.4-1.6,2.9-3.9,2.3c-0.2-0.9-0.7-1.8-0.7-2.8c-0.1-14.5-0.1-29,0-43.5
	c0-2.6,1.1-4.2,2.5-3.8c2.3,0.6,2.2,2.5,2.2,4.3C1045.1,253.2,1045.1,261.3,1045.1,270.2z"/>
<path class="st0" d="M1051,468.6c1.6,2.1,2.7,3.8,3.9,5.5c1.5,0.2,3,0.3,4.5,0.7c5.5,1.5,9.4,5.9,9.3,11.6c-0.2,6.1,0,12.2,0,18.4
	c0,7.7,0.1,15.3,0,23c-0.1,6.2-1.4,7.6-7.7,7.7c-12,0.1-24,0.1-36,0c-1.5,0-3.1-0.2-4.5-0.6c-2.4-0.6-4-2.2-4.2-4.8
	c-0.1-1.5-0.1-3.1-0.1-4.6c0-12,0-24,0-36c0-1,0-2,0-3.1c0.4-6,3.6-10,9.3-11.6c1.5-0.4,3-0.4,4.9-0.7c1.6-4,4.1-7.5,8.7-8.6
	C1043.3,464.5,1047.2,465.3,1051,468.6 M1025.6,510.5c0,4.1,0,8.1,0.1,12.2c0.1,2.3,0.8,2.6,4.4,1.8c0.1-0.7,0.4-1.5,0.4-2.2
	c0-11.2,0.1-22.4,0-33.6c0-1-0.2-2.1-0.6-2.9c-0.3-0.6-1.1-1.1-1.7-1.2c-0.6,0-1.6,0.4-1.8,0.9c-0.5,1.1-0.8,2.4-0.8,3.6
	C1025.6,495.8,1025.6,502.4,1025.6,510.5 M1044.7,476.6c-2.7-2-3.9-1.8-4.2,0.5c-0.1,1-0.2,2-0.2,3.1c0,13.6,0,27.1,0.1,40.7
	c0,1.6-0.6,3.8,1.9,4.3c1.9,0.4,2.8-0.9,2.8-4.3C1045.1,506.5,1045,492.2,1044.7,476.6 M1055.7,485c-1.6,1.4-1.2,3.3-1.2,5
	c0,9.5,0,18.9,0,28.4c0,1.5,0,3.1,0.1,4.6c0.1,1.9,0.5,2,4.2,1.6c0.1-1.7,0.3-3.4,0.4-5.2c0-7.2,0-14.3,0-21.5c0-3.6,0-7.2-0.1-10.7
	C1059.1,485.8,1058.2,484.9,1055.7,485z"/>
<path class="st0" d="M561.7,524.7c0-11.2,0-21.7,0-32.2c0-1.3,0-2.6,0-3.8c-0.2-8.7,5-14.3,12.6-14.3c0.5,0,1-0.3,2-0.6
	c2.2-5.2,5.8-8.9,12.5-8.8c6,0.2,9.3,3.6,11.6,8.9c1.2,0.2,2.4,0.4,3.7,0.6c7.6,1,9.9,6.5,10.8,11.3c0.3,1.7,0.2,3.6,0.2,5.4
	c0,11.3,0,22.5,0,33.8c0,0.8,0,1.5,0,2.3c-0.2,6.3-1.9,8.1-8.4,8.2c-12.3,0.1-24.6,0.2-36.8,0c-6.3-0.1-7.7-1.7-8.1-8.5
	C561.6,526.5,561.7,526,561.7,524.7 M571.5,501.5c0,6.4,0,12.7,0,19.1c0,1.3,0.1,2.6,0.5,3.7c0.2,0.5,1.2,0.9,1.8,0.9
	c0.7,0,1.6-0.3,1.9-0.8c0.5-0.8,0.6-1.9,0.6-2.9c0-10.9,0-21.9,0-32.8c0-1-0.2-2-0.7-2.9c-0.3-0.6-1.1-1.1-1.7-1.1
	c-0.6,0-1.5,0.5-1.8,1c-0.4,0.9-0.6,1.9-0.7,2.9C571.4,492.3,571.5,496.2,571.5,501.5 M587.1,475.4c-0.4,1.4-1.1,2.9-1.1,4.3
	c-0.1,13.8,0,27.6,0,41.4c0,1.2,0.3,2.4,0.5,3.9c1.3,0.1,2.2,0.1,3.1,0.2c0.4-0.6,0.8-1,0.9-1.5c0.1-15.3,0.1-30.6,0.1-45.9
	c0-0.5-0.2-1.1-0.5-1.4C589.6,475.7,588.9,475.4,587.1,475.4 M600.1,503c0,6.6,0,13.3,0.2,19.9c0,1.9,0.5,2,3.9,1.8
	c0.2-0.7,0.6-1.4,0.6-2.1c0.1-11.5,0.1-23,0.2-34.5c0-0.7-0.1-1.6-0.5-2.2c-0.3-0.6-1.1-1.2-1.7-1.2c-0.6-0.1-1.6,0.4-1.8,0.9
	c-0.5,1.1-0.8,2.4-0.8,3.6C600.1,493.3,600.1,497.4,600.1,503z"/>
<path class="st3" d="M1025.6,509.8c0-7.4,0-14,0-20.6c0-1.2,0.3-2.5,0.8-3.6c0.2-0.5,1.2-1,1.8-0.9c0.6,0,1.4,0.6,1.7,1.2
	c0.4,0.9,0.6,1.9,0.6,2.9c0,11.2,0,22.4,0,33.6c0,0.7-0.3,1.5-0.4,2.2c-3.5,0.7-4.3,0.5-4.4-1.8
	C1025.6,518.6,1025.7,514.6,1025.6,509.8z"/>
<path class="st3" d="M1044.8,477.2c0.2,15,0.2,29.3,0.2,43.6c0,3.4-0.9,4.7-2.8,4.3c-2.5-0.5-1.9-2.7-1.9-4.3
	c-0.1-13.6-0.1-27.1-0.1-40.7c0-1,0.1-2,0.2-3.1C1040.8,474.8,1042,474.6,1044.8,477.2z"/>
<path class="st3" d="M1056.3,484.8c1.9,0.2,2.8,1,2.8,2.4c0.1,3.6,0.1,7.2,0.1,10.7c0,7.2,0,14.3,0,21.5c0,1.7-0.2,3.5-0.4,5.2
	c-3.7,0.4-4.1,0.3-4.2-1.6c-0.1-1.5-0.1-3.1-0.1-4.6c0-9.5,0-18.9,0-28.4C1054.5,488.3,1054.1,486.4,1056.3,484.8z"/>
<path class="st3" d="M571.5,500.7c0-4.6,0-8.4,0.1-12.2c0-1,0.2-2,0.7-2.9c0.3-0.5,1.2-1,1.8-1c0.6,0,1.5,0.6,1.7,1.1
	c0.4,0.9,0.7,1.9,0.7,2.9c0,10.9,0,21.9,0,32.8c0,1-0.2,2.1-0.6,2.9c-0.3,0.5-1.3,0.8-1.9,0.8c-0.6,0-1.7-0.4-1.8-0.9
	c-0.4-1.2-0.5-2.5-0.5-3.7C571.4,514.2,571.5,507.8,571.5,500.7z"/>
<path class="st3" d="M587.7,475.2c1.2,0.2,1.9,0.6,2.4,1.1c0.3,0.3,0.5,0.9,0.5,1.4c0,15.3,0,30.6-0.1,45.9c0,0.4-0.5,0.9-0.9,1.5
	c-0.9,0-1.8-0.1-3.1-0.2c-0.2-1.4-0.5-2.6-0.5-3.9c0-13.8-0.1-27.6,0-41.4C586,478.3,586.7,476.9,587.7,475.2z"/>
<path class="st3" d="M600.1,502.2c0-4.8-0.1-8.9,0-13c0-1.2,0.3-2.5,0.8-3.6c0.2-0.5,1.2-1,1.8-0.9c0.6,0.1,1.4,0.7,1.7,1.2
	c0.4,0.6,0.5,1.5,0.5,2.2c0,11.5-0.1,23-0.2,34.5c0,0.7-0.4,1.4-0.6,2.1c-3.5,0.2-3.9,0.1-3.9-1.8
	C600.1,516.3,600.1,509.6,600.1,502.2z"/>
</svg>
